SplineFontDB: 3.0
FontName: TechnaSans-Regular
FullName: Techna Sans Regular
FamilyName: Techna Sans
Weight: Regular
Copyright: Copyright (c) 2019, Carl Enlund
UComments: "2019-5-11: Created with FontForge (http://fontforge.org)"
Version: 1.000
ItalicAngle: 0
UnderlinePosition: -100
UnderlineWidth: 50
Ascent: 800
Descent: 200
InvalidEm: 0
LayerCount: 3
Layer: 0 0 "Back" 1
Layer: 1 0 "Fore" 0
Layer: 2 0 "Thin" 1
XUID: [1021 637 837473831 1446149]
FSType: 0
OS2Version: 0
OS2_WeightWidthSlopeOnly: 0
OS2_UseTypoMetrics: 1
CreationTime: 1557605594
ModificationTime: 1559417043
PfmFamily: 17
TTFWeight: 400
TTFWidth: 5
LineGap: 90
VLineGap: 0
OS2TypoAscent: 0
OS2TypoAOffset: 1
OS2TypoDescent: 0
OS2TypoDOffset: 1
OS2TypoLinegap: 0
OS2WinAscent: 0
OS2WinAOffset: 1
OS2WinDescent: 0
OS2WinDOffset: 1
HheadAscent: 0
HheadAOffset: 1
HheadDescent: 0
HheadDOffset: 1
OS2Vendor: 'PfEd'
Lookup: 1 0 0 "'ss01' Style Set 1 in Latin lookup 1" { "'ss01' Style Set 1 in Latin lookup 1-1"  } ['ss01' ('DFLT' <'dflt' > 'latn' <'dflt' > ) ]
Lookup: 4 0 1 "'liga' Standard Ligatures in Latin lookup 0" { "'liga' Standard Ligatures in Latin lookup 0-1"  } ['liga' ('DFLT' <'dflt' > 'latn' <'dflt' > ) ]
Lookup: 258 0 0 "'kern' Horizontal Kerning in Latin lookup 0" { "'kern' Horizontal Kerning in Latin lookup 0-1" [150,15,0] } ['kern' ('DFLT' <'dflt' > 'latn' <'dflt' > ) ]
MarkAttachClasses: 1
DEI: 91125
LangName: 1033 "" "" "" "" "" "" "" "" "" "" "" "" "" "This Font Software is licensed under the SIL Open Font License, Version 1.1.+AAoACgAA" "http://scripts.sil.org/OFL"
Encoding: adobe-latin-3
UnicodeInterp: none
NameList: Adobe Glyph List
DisplaySize: -128
AntiAlias: 1
FitToEm: 0
WinInfo: 15 15 5
BeginPrivate: 0
EndPrivate
Grid
-1000 325 m 0
 2000 325 l 1024
  Named: "Super"
-696.498535156 1300 m 0
 -696.498535156 -700 l 1024
-1000 688 m 0
 2000 688 l 1024
-976 -165 m 0
 2024 -165 l 1024
-1021.83337402 1300 m 0
 -1021.83337402 -700 l 1024
-1000 503 m 0
 2000 503 l 1024
-1000 718 m 0
 2000 718 l 1024

StartChar: D
Encoding: 36 68 0
Width: 688
VWidth: 0
Flags: HMW
AnchorPoint: "Top" 323 744 basechar 0
LayerCount: 3
Fore
SplineSet
314 121 m 1
 314 0 l 1
 140 0 l 1
 140 121 l 1
 314 121 l 1
324 688 m 1
 318 567 l 1
 140 567 l 1
 140 688 l 1
 324 688 l 1
58 0 m 1
 58 688 l 1
 192 688 l 1
 192 0 l 1
 58 0 l 1
324 688 m 1
 549.057617188 688 670 540.865234375 670 350 c 3
 670 152.017578125 545.622070312 0 314 0 c 1
 314 121 l 1
 463.310546875 121 534 221.337890625 534 346 c 3
 534 468.446289062 464.620117188 567 318 567 c 1
 324 688 l 1
EndSplineSet
Validated: 5
EndChar

StartChar: E
Encoding: 37 69 1
Width: 547
VWidth: 0
Flags: HMW
AnchorPoint: "Top" 296 744 basechar 0
LayerCount: 3
Fore
SplineSet
123 412.916992188 m 1
 453 412.916992188 l 1
 421 293 l 1
 123 292.916992188 l 1
 123 412.916992188 l 1
123 122 m 1
 511 122 l 1
 544 0 l 1
 123 0 l 1
 123 122 l 1
123 688 m 1
 523 688 l 1
 491 566 l 1
 123 566 l 1
 123 688 l 1
58 0 m 1
 58 688 l 1
 192 688 l 1
 192 0 l 1
 58 0 l 1
EndSplineSet
Validated: 5
EndChar

StartChar: C
Encoding: 35 67 2
Width: 610
VWidth: 0
Flags: HMW
AnchorPoint: "Top" 376 744 basechar 0
AnchorPoint: "Cedilla" 386 0 basechar 0
LayerCount: 3
Fore
SplineSet
559 545 m 1
 527 556 478 570 411 570 c 3
 300.296875 570 155 519.692382812 155 347 c 3
 155 177.723632812 287.494140625 113 419 113 c 3
 483 113 545 127 587 146 c 1
 587 18 l 1
 554.76171875 4.037109375 490.828125 -11 411 -11 c 3
 235.42578125 -11 18 72.3076171875 18 343 c 3
 18 629.174804688 261.901367188 697 430 697 c 3
 505.048828125 697 565.306640625 681.842773438 592 673 c 1
 559 545 l 1
EndSplineSet
EndChar

StartChar: G
Encoding: 39 71 3
Width: 696
VWidth: 0
Flags: HMW
AnchorPoint: "Top" 387 744 basechar 0
LayerCount: 3
Fore
SplineSet
592 541 m 1
 566 550.310546875 495 571 418 571 c 3
 303.630859375 571 155 523.383789062 155 347 c 3
 155 180 280.211914062 112 429 112 c 3
 491 112 559.654296875 128.59375 592 145 c 1
 640 18 l 1
 595 4.037109375 509 -11 425 -11 c 3
 224.551757812 -11 18 75.7607421875 18 343 c 3
 18 630 264.224609375 697 429 697 c 3
 525.09765625 697 592.650390625 680 625 670 c 1
 592 541 l 1
511 18 m 1
 511 350 l 1
 640 350 l 1
 640 18 l 1
 511 18 l 1
372 400 m 1
 640 400 l 1
 640 280 l 1
 340 280 l 1
 372 400 l 1
EndSplineSet
EndChar

StartChar: T
Encoding: 52 84 4
Width: 559
VWidth: 0
Flags: HMW
AnchorPoint: "Cedilla" 290 0 basechar 0
AnchorPoint: "Top" 289 744 basechar 0
LayerCount: 3
Fore
SplineSet
557 688 m 1
 557 566 l 1
 -6 566 l 1
 26 688 l 1
 557 688 l 1
222 0 m 1
 222 639 l 1
 356 639 l 1
 356 0 l 1
 222 0 l 1
EndSplineSet
EndChar

StartChar: H
Encoding: 40 72 5
Width: 658
VWidth: 0
Flags: HMW
LayerCount: 3
Fore
SplineSet
118 413.916992188 m 1
 540 413.916992188 l 5
 540 292 l 5
 118 291.916992188 l 1
 118 413.916992188 l 1
466 0 m 5
 466 688 l 5
 600 688 l 5
 600 0 l 5
 466 0 l 5
58 0 m 1
 58 688 l 1
 192 688 l 1
 192 0 l 1
 58 0 l 1
EndSplineSet
EndChar

StartChar: N
Encoding: 46 78 6
Width: 660
VWidth: 0
Flags: HMW
AnchorPoint: "Top" 330 744 basechar 0
LayerCount: 3
Fore
SplineSet
106 654 m 5
 191 688 l 5
 221 688 l 5
 568 34 l 5
 484 0 l 5
 454 0 l 5
 106 654 l 5
470 0 m 5
 470 688 l 5
 602 688 l 5
 602 0 l 5
 470 0 l 5
58 0 m 5
 58 688 l 5
 190 688 l 5
 190 0 l 5
 58 0 l 5
EndSplineSet
Validated: 5
EndChar

StartChar: A
Encoding: 33 65 7
Width: 629
VWidth: 0
Flags: HMW
AnchorPoint: "Top" 315 744 basechar 0
LayerCount: 3
Fore
SplineSet
487 0 m 1
 282 688 l 1
 417 688 l 1
 626 0 l 1
 487 0 l 1
3 0 m 1
 217 688 l 1
 346 688 l 1
 138 0 l 1
 3 0 l 1
114 268 m 1
 516 268 l 1
 516 154 l 1
 114 154 l 1
 114 268 l 1
EndSplineSet
Validated: 5
EndChar

StartChar: B
Encoding: 34 66 8
Width: 585
VWidth: 0
Flags: HMW
LayerCount: 3
Fore
SplineSet
330 118 m 5
 336 0 l 5
 123 0 l 5
 123 118 l 5
 330 118 l 5
399 405 m 5
 399 291 l 5
 123 291 l 5
 123 405 l 5
 399 405 l 5
350 373 m 5
 478.846679688 373 557 294.446289062 557 196 c 7
 557 82.5791015625 477.991210938 0 336 0 c 5
 330 118 l 5
 389.802734375 118 419 156.796875 419 205 c 7
 419 252.6484375 389.802734375 291 330 291 c 5
 350 373 l 5
335 688 m 5
 323 568 l 5
 123 568 l 5
 123 688 l 5
 335 688 l 5
58 0 m 5
 58 688 l 5
 192 688 l 5
 192 0 l 5
 58 0 l 5
335 688 m 5
 468.01953125 688 538 606.537109375 538 512 c 7
 538 415.583984375 475.048828125 344 358 344 c 5
 323 405 l 5
 374.877929688 405 403 439.54296875 403 487 c 7
 403 533.903320312 374.877929688 568 323 568 c 5
 335 688 l 5
EndSplineSet
Validated: 5
EndChar

StartChar: F
Encoding: 38 70 9
Width: 521
VWidth: 0
Flags: HMW
LayerCount: 3
Fore
SplineSet
123 406.916992188 m 5
 449 406.916992188 l 1
 417 286 l 1
 123 286 l 5
 123 406.916992188 l 5
  Spiro
    123 406.917 v
    449 406.917 v
    417 286 v
    123 286 v
    0 0 z
  EndSpiro
123 688 m 5
 523 688 l 1
 490 566 l 1
 123 566 l 5
 123 688 l 5
58 0 m 1
 58 688 l 1
 192 688 l 1
 192 0 l 1
 58 0 l 1
  Spiro
    58 0 v
    58 688 v
    192 688 v
    192 0 v
    0 0 z
  EndSpiro
EndSplineSet
Validated: 5
EndChar

StartChar: I
Encoding: 41 73 10
Width: 260
VWidth: 0
Flags: HMW
AnchorPoint: "Top" 130 744 basechar 0
LayerCount: 3
Fore
SplineSet
63 0 m 1
 63 688 l 1
 197 688 l 1
 197 0 l 1
 63 0 l 1
EndSplineSet
Validated: 1
EndChar

StartChar: L
Encoding: 44 76 11
Width: 513
VWidth: 0
Flags: HMW
AnchorPoint: "Caron" 339 688 basechar 0
AnchorPoint: "Top" 126 744 basechar 0
LayerCount: 3
Fore
SplineSet
58 0 m 1
 58 688 l 1
 192 688 l 1
 192 0 l 1
 58 0 l 1
123 0 m 1
 123 122 l 1
 515 122 l 1
 484 0 l 1
 123 0 l 1
EndSplineSet
EndChar

StartChar: M
Encoding: 45 77 12
Width: 755
VWidth: 0
Flags: HMW
LayerCount: 3
Fore
SplineSet
563 0 m 1
 563 688 l 1
 697 688 l 1
 697 0 l 1
 563 0 l 1
329 253 m 1
 329 308 l 5
 533 688 l 1
 647 688 l 1
 433 253 l 1
 329 253 l 1
324 253 m 1
 105 688 l 1
 224 688 l 1
 428 315 l 5
 428 253 l 1
 324 253 l 1
58 0 m 1
 58 688 l 1
 192 688 l 1
 192 0 l 1
 58 0 l 1
EndSplineSet
Validated: 5
EndChar

StartChar: O
Encoding: 47 79 13
Width: 784
VWidth: 0
Flags: HMW
AnchorPoint: "Top" 392 744 basechar 0
LayerCount: 3
Fore
SplineSet
392 705 m 3
 636.69140625 705 766 538.086914062 766 346 c 3
 766 151.690429688 636.69140625 -17 392 -17 c 3
 147.30859375 -17 18 151.690429688 18 346 c 3
 18 538.086914062 147.30859375 705 392 705 c 3
392 584 m 3
 235.926757812 584 154 469 154 346 c 3
 154 220.932617188 235.926757812 104 392 104 c 3
 548.073242188 104 630 220.932617188 630 346 c 3
 630 469 548.073242188 584 392 584 c 3
EndSplineSet
Validated: 1
EndChar

StartChar: P
Encoding: 48 80 14
Width: 562
VWidth: 0
Flags: HMW
LayerCount: 3
Fore
SplineSet
322 381 m 5
 323 261 l 5
 140 261 l 1
 140 381 l 1
 322 381 l 5
329 688 m 5
 322 566 l 5
 140 566 l 1
 140 688 l 1
 329 688 l 5
58 0 m 1
 58 688 l 1
 192 688 l 1
 192 0 l 1
 58 0 l 1
329 688 m 5
 474.442382812 688 549 596.690429688 549 477 c 7
 549 354.114257812 472.37890625 261 323 261 c 5
 322 381 l 5
 386.069335938 381 414 421.958007812 414 475 c 7
 414 525.419921875 386.069335938 566 322 566 c 5
 329 688 l 5
EndSplineSet
Validated: 5
EndChar

StartChar: Q
Encoding: 49 81 15
Width: 784
VWidth: 0
Flags: HMW
LayerCount: 3
Fore
SplineSet
639 -71 m 1
 360 239 l 1
 452 315 l 1
 731 5 l 1
 639 -71 l 1
EndSplineSet
Refer: 13 79 N 1 0 0 1 -2 0 2
Validated: 5
EndChar

StartChar: R
Encoding: 50 82 16
Width: 577
VWidth: 0
Flags: HMW
AnchorPoint: "Top" 283 744 basechar 0
LayerCount: 3
Fore
SplineSet
365 383 m 1
 365 268 l 1
 140 268 l 1
 140 383 l 1
 365 383 l 1
330 688 m 1
 323 566 l 1
 140 566 l 1
 140 688 l 1
 330 688 l 1
58 0 m 1
 58 688 l 1
 192 688 l 1
 192 0 l 1
 58 0 l 1
330 688 m 1
 472.6953125 688 549 599.302734375 549 479 c 3
 549 360.708007812 476.212890625 268 309 268 c 1
 323 383 l 1
 386.373046875 383 414 423.522460938 414 476 c 3
 414 525.865234375 386.373046875 566 323 566 c 1
 330 688 l 1
400 0 m 1
 255 316 l 1
 402 316 l 1
 549 0 l 1
 400 0 l 1
EndSplineSet
Validated: 5
EndChar

StartChar: U
Encoding: 53 85 17
Width: 624
VWidth: 0
Flags: HMW
AnchorPoint: "Top" 311 744 basechar 0
LayerCount: 3
Fore
SplineSet
190 240 m 6
 190 155.56202608 230.502000762 106 312 106 c 3
 393.497999238 106 434 155.56202608 434 240 c 6
 434 688 l 1
 568 688 l 1
 568 231 l 6
 568 77.7069375 479.489299611 -17 312 -17 c 3
 144.510700389 -17 56 77.7069375 56 231 c 6
 56 688 l 1
 190 688 l 1
 190 240 l 6
EndSplineSet
Validated: 1
EndChar

StartChar: V
Encoding: 54 86 18
Width: 597
VWidth: 0
Flags: HMW
LayerCount: 3
Fore
SplineSet
258 0 m 5
 448 688 l 1
 591 688 l 1
 389 0 l 5
 258 0 l 5
204 0 m 5
 6 688 l 1
 153 688 l 1
 339 0 l 5
 204 0 l 5
EndSplineSet
Validated: 5
EndChar

StartChar: Z
Encoding: 58 90 19
Width: 541
VWidth: 0
Flags: HMW
AnchorPoint: "Top" 291 744 basechar 0
LayerCount: 3
Fore
SplineSet
19 24 m 1
 101 121 l 1
 543 121 l 1
 509 0 l 1
 19 0 l 1
 19 24 l 1
525 664 m 1
 442 567 l 1
 21 567 l 1
 55 688 l 1
 525 688 l 1
 525 664 l 1
19 24 m 1
 367 652 l 1
 525 664 l 1
 177 38 l 1
 19 24 l 1
EndSplineSet
Validated: 5
EndChar

StartChar: W
Encoding: 55 87 21
Width: 919
VWidth: 0
Flags: HMW
LayerCount: 3
Fore
SplineSet
633 0 m 1
 761 688 l 1
 898 688 l 1
 756 0 l 1
 633 0 l 1
588 0 m 1
 412 688 l 1
 536 688 l 1
 713 0 l 1
 588 0 l 1
208 0 m 1
 387 688 l 1
 505 688 l 1
 326 0 l 1
 208 0 l 1
161 0 m 1
 21 688 l 1
 162 688 l 1
 288 0 l 1
 161 0 l 1
EndSplineSet
Validated: 5
EndChar

StartChar: Y
Encoding: 57 89 22
Width: 561
VWidth: 0
Flags: HMW
AnchorPoint: "Top" 281 744 basechar 0
LayerCount: 3
Fore
SplineSet
214 0 m 1
 214 328 l 1
 348 328 l 1
 348 0 l 1
 214 0 l 1
222 250 m 1
 418 688 l 1
 566 688 l 1
 343 243 l 1
 222 250 l 1
217 241 m 1
 -5 688 l 1
 147 688 l 1
 343 253 l 1
 217 241 l 1
EndSplineSet
Validated: 5
EndChar

StartChar: X
Encoding: 56 88 23
Width: 580
VWidth: 0
Flags: HMW
LayerCount: 3
Back
SplineSet
145 0 m 5
 -7 0 l 5
 423 688 l 5
 574 688 l 5
 145 0 l 5
432 0 m 5
 10 688 l 5
 166 688 l 5
 587 0 l 5
 432 0 l 5
EndSplineSet
Fore
SplineSet
145 0 m 1
 -7 0 l 1
 196.015625 355.854492188 l 1
 10 688 l 1
 166 688 l 1
 294.1953125 449.426757812 l 1
 423 688 l 1
 574 688 l 1
 384.020507812 357.194335938 l 1
 587 0 l 1
 432 0 l 1
 285.840820312 263.62109375 l 1
 145 0 l 1
EndSplineSet
Validated: 1
EndChar

StartChar: S
Encoding: 51 83 24
Width: 501
VWidth: 0
Flags: HMW
AnchorPoint: "Bottom" 248 -40 basechar 0
AnchorPoint: "Cedilla" 269 0 basechar 0
AnchorPoint: "Top" 275 744 basechar 0
LayerCount: 3
Fore
SplineSet
460 667 m 1
 429 542 l 1
 370 570 323 577 278 577 c 3
 210 577 167 554 167 502 c 3
 167 461 191 446 258 418 c 2
 316 394 l 2
 421 350 483 304 483 198 c 3
 483 61 390 -10 239 -10 c 3
 161 -10 89 9 40 39 c 1
 40 174 l 1
 100 133 175 109 248 109 c 3
 310 109 349 133 349 190 c 3
 349 228 319 246 245 277 c 2
 181 304 l 2
 99 339 33 376 33 499 c 3
 33 621 128 698 292 698 c 3
 353 698 421 686 460 667 c 1
EndSplineSet
EndChar

StartChar: K
Encoding: 43 75 25
Width: 594
VWidth: 0
Flags: HMW
LayerCount: 3
Fore
SplineSet
165 360 m 5
 332 360 l 5
 606 0 l 5
 436 0 l 5
 165 360 l 5
166 351 m 5
 431 688 l 5
 592 688 l 5
 327 351 l 5
 166 351 l 5
58 0 m 1
 58 688 l 1
 192 688 l 1
 192 0 l 1
 58 0 l 1
EndSplineSet
Validated: 5
EndChar

StartChar: J
Encoding: 42 74 26
Width: 472
VWidth: 0
Flags: HMW
LayerCount: 3
Fore
SplineSet
352 688 m 1
 352 566 l 1
 54 566 l 5
 86 688 l 5
 352 688 l 1
33 156 m 1
 75 128.5 123.704225352 112 173 112 c 3
 242.271028037 112 282 146.309090909 282 223 c 2
 282 688 l 1
 416 688 l 1
 416 211 l 2
 416 63.6899993346 333.111328125 -10 183 -10 c 3
 124 -10 68 5.83333333333 33 28 c 1
 33 156 l 1
EndSplineSet
Validated: 5
EndChar

StartChar: o
Encoding: 79 111 27
Width: 584
VWidth: 0
Flags: HMW
AnchorPoint: "Top" 292 578 basechar 0
LayerCount: 3
Fore
SplineSet
292 518 m 3
 463.567382812 518 562 402 562 252 c 3
 562 101 463.567382812 -15 292 -15 c 3
 120.432617188 -15 22 101 22 252 c 3
 22 402 120.432617188 518 292 518 c 3
292 404 m 3
 200.461914062 404 152 334.092773438 152 252 c 3
 152 169.913085938 200.461914062 99 292 99 c 3
 383.538085938 99 432 169.913085938 432 252 c 3
 432 334.092773438 383.538085938 404 292 404 c 3
EndSplineSet
Validated: 1
Layer: 2
SplineSet
292 504 m 3
 451.494140625 504 543 391.052734375 543 245 c 7
 543 97.958984375 451.494140625 -15 292 -15 c 3
 132.505859375 -15 41 97.958984375 41 245 c 3
 41 391.052734375 132.505859375 504 292 504 c 3
292 451 m 3
 165.154296875 451 98 356.2578125 98 245 c 3
 98 133.94140625 165.154296875 38 292 38 c 3
 418.845703125 38 486 133.94140625 486 245 c 7
 486 356.2578125 418.845703125 451 292 451 c 3
EndSplineSet
EndChar

StartChar: i
Encoding: 73 105 28
Width: 233
VWidth: 0
Flags: HMW
LayerCount: 3
Fore
SplineSet
47 579 m 1
 47 711 l 1
 186 711 l 1
 186 579 l 1
 47 579 l 1
52 0 m 1
 52 503 l 1
 181 503 l 1
 181 0 l 1
 52 0 l 1
EndSplineSet
Validated: 1
EndChar

StartChar: hyphen
Encoding: 13 45 29
Width: 370
VWidth: 0
Flags: HMW
LayerCount: 3
Fore
SplineSet
336 368 m 5
 336 246 l 5
 22 246 l 1
 54 368 l 1
 336 368 l 5
EndSplineSet
Validated: 1
EndChar

StartChar: l
Encoding: 76 108 30
Width: 233
VWidth: 0
Flags: HMW
AnchorPoint: "Caron" 245 688 basechar 0
AnchorPoint: "Top" 117 759 basechar 0
LayerCount: 3
Fore
SplineSet
52 0 m 1
 52 718 l 1
 181 718 l 1
 181 0 l 1
 52 0 l 1
EndSplineSet
EndChar

StartChar: n
Encoding: 78 110 31
Width: 540
VWidth: 0
Flags: HMW
AnchorPoint: "Top" 271 574 basechar 0
LayerCount: 3
Fore
SplineSet
52 0 m 1
 52 503 l 1
 177 503 l 1
 178 360 l 1
 181 360 l 1
 181 0 l 1
 52 0 l 1
158 340 m 1
 158 443.849609375 224.16015625 512 327 512 c 3
 431.403320312 512 494 441.4140625 494 334 c 2
 494 0 l 1
 365 0 l 1
 365 300 l 2
 365 357.193359375 336.674804688 395 278 395 c 3
 216.6328125 395 181 357.053710938 181 287 c 1
 158 340 l 1
EndSplineSet
Validated: 5
Layer: 2
SplineSet
70 0 m 1
 70 493 l 5
 120 493 l 5
 121 350 l 5
 124 350 l 5
 124 0 l 1
 70 0 l 1
111 344 m 5
 111 439.396484375 184.4765625 502 297 502 c 7
 409.029296875 502 475 426.990234375 475 314 c 6
 475 0 l 1
 420 0 l 1
 420 296 l 6
 420 396 375.395507812 456 283 456 c 7
 182.408203125 456 124 396.62109375 124 287 c 5
 111 344 l 5
EndSplineSet
EndChar

StartChar: h
Encoding: 72 104 32
Width: 540
VWidth: 0
Flags: HMW
LayerCount: 3
Fore
SplineSet
158 340 m 1
 158 443.849609375 224.16015625 512 327 512 c 3
 431.403320312 512 494 441.4140625 494 334 c 2
 494 0 l 1
 365 0 l 1
 365 300 l 2
 365 357.193359375 336.674804688 395 278 395 c 3
 216.6328125 395 181 357.053710938 181 287 c 1
 158 340 l 1
52 0 m 1
 52 718 l 1
 181 718 l 1
 181 0 l 1
 52 0 l 1
EndSplineSet
Validated: 5
EndChar

StartChar: a
Encoding: 65 97 33
Width: 487
VWidth: 0
Flags: HMW
AnchorPoint: "Top" 239 574 basechar 0
LayerCount: 3
Fore
SplineSet
315 319 m 1
 315 373 279 402 206 402 c 3
 142 402 89 384 48 361 c 1
 79 481 l 1
 120 501 169 512 229 512 c 3
 368 512 442 447.138671875 442 327 c 1
 315 319 l 1
442 327 m 1
 442 0 l 1
 321 0 l 1
 320 143 l 1
 315 143 l 1
 315 319 l 1
 442 327 l 1
151 157 m 3
 151 122.806640625 172.290039062 98 222 98 c 3
 279.9296875 98 315 132.90625 315 198 c 1
 332 149 l 1
 332 54.55078125 272.607421875 -7 183 -7 c 3
 84.2392578125 -7 22 57.572265625 22 141 c 3
 22 279.619140625 146.971679688 297.325195312 247.7890625 306.006835938 c 2
 329 313 l 1
 329 226 l 1
 233.8515625 216.999023438 l 2
 181.091796875 211.923828125 151 195.5390625 151 157 c 3
EndSplineSet
Validated: 5
Layer: 2
SplineSet
363 319 m 1
 363 404.228515625 314.083007812 450 231 450 c 3
 156.646484375 450 114.740234375 428.48828125 74 401 c 1
 90 464 l 1
 130.1796875 488.516601562 178.200195312 502 237 502 c 3
 351.41796875 502 418 438.72265625 418 332 c 1
 363 319 l 1
  Spiro
    363 319 v
    347.272 390.784 o
    302.089 435.007 o
    231 450 o
    166.36 443.417 o
    116.243 425.899 o
    74 401 v
    90 464 v
    132.856 484.731 o
    181.736 497.605 o
    237 502 o
    334.698 481.682 o
    396.543 423.431 o
    418 332 v
    0 0 z
  EndSpiro
418 332 m 1
 418 0 l 1
 369 0 l 1
 368 143 l 1
 363 143 l 1
 363 319 l 1
 418 332 l 1
  Spiro
    418 332 v
    418 0 v
    369 0 v
    368 143 v
    363 143 v
    363 319 v
    0 0 z
  EndSpiro
102 141 m 3
 102 80.58203125 147.383789062 42 221 42 c 3
 309.07421875 42 363 96.4541015625 363 198 c 1
 380 149 l 1
 380 54.55078125 306.65625 -7 212 -7 c 3
 116.98828125 -7 45 47.7880859375 45 135 c 3
 45 252.836914062 155.174804688 270.96484375 261 281 c 2
 377 292 l 1
 377 249 l 1
 247.0625 236.9921875 l 2
 159.823242188 228.930664062 102 204.56640625 102 141 c 3
  Spiro
    102 141 o
    116.464 88.5248 o
    157.483 54.2165 o
    221 42 o
    296.896 59.8433 o
    345.791 112.494 o
    363 198 v
    380 149 v
    357.522 66.6475 o
    297.55 12.4179 o
    212 -7 o
    126.55 10.4004 o
    67.14 59.4876 o
    45 135 o
    77.4225 222.932 o
    158.062 264.9 o
    261 281 [
    377 292 v
    377 249 v
    247.062 236.992 ]
    170.745 222.669 o
    120.187 192.307 o
    0 0 z
  EndSpiro
EndSplineSet
Substitution2: "'ss01' Style Set 1 in Latin lookup 1-1" a.ss01
EndChar

StartChar: u
Encoding: 85 117 34
Width: 536
VWidth: 0
Flags: HMW
AnchorPoint: "Top" 268 574 basechar 0
LayerCount: 3
Fore
SplineSet
484 503 m 1
 484 0 l 1
 361 0 l 1
 360 143 l 1
 355 143 l 1
 355 503 l 1
 484 503 l 1
372 150 m 1
 372 54 316.180664062 -9 214 -9 c 3
 107.840820312 -9 46 61.7841796875 46 169 c 2
 46 503 l 1
 175 503 l 1
 175 202 l 2
 175 146.009765625 202.674804688 109 260 109 c 3
 320.1015625 109 355 147.6484375 355 219 c 1
 372 150 l 1
EndSplineSet
Validated: 5
EndChar

StartChar: b
Encoding: 66 98 35
Width: 602
VWidth: 0
Flags: HMW
LayerCount: 3
Fore
SplineSet
181 143 m 1
 178 143 l 1
 177 0 l 1
 52 0 l 1
 52 718 l 1
 181 718 l 1
 181 302 l 1
 180 302 l 1
 180 202 l 1
 181 202 l 1
 181 143 l 1
340 515 m 3
 490.673828125 515 580 400.30859375 580 252 c 3
 580 102.696289062 490.673828125 -12 340 -12 c 3
 221.80859375 -12 149 74.71875 149 182 c 1
 149 322 l 1
 149 429.221679688 222.592773438 515 340 515 c 3
315 402 m 3
 226.73046875 402 180 335 180 252 c 3
 180 169 226.73046875 101 315 101 c 3
 403.26953125 101 450 169 450 252 c 3
 450 335 403.26953125 402 315 402 c 3
EndSplineSet
Validated: 5
EndChar

StartChar: d
Encoding: 68 100 36
Width: 602
VWidth: 0
Flags: HMW
AnchorPoint: "Caron" 614 688 basechar 0
LayerCount: 3
Fore
SplineSet
421 143 m 1
 421 202 l 1
 422 202 l 1
 422 302 l 1
 421 302 l 1
 421 718 l 1
 550 718 l 1
 550 0 l 1
 425 0 l 1
 424 143 l 1
 421 143 l 1
267 515 m 3
 379.352539062 515 453 429.221679688 453 322 c 1
 453 182 l 17
 453 74.71875 380.13671875 -12 267 -12 c 3
 111.318359375 -12 22 102.696289062 22 252 c 3
 22 400.30859375 111.318359375 515 267 515 c 3
287 402 m 3
 198.73046875 402 152 335 152 252 c 3
 152 169 198.73046875 101 287 101 c 3
 375.26953125 101 422 169 422 252 c 3
 422 335 375.26953125 402 287 402 c 3
EndSplineSet
EndChar

StartChar: p
Encoding: 80 112 37
Width: 602
VWidth: 0
Flags: HMW
LayerCount: 3
Fore
SplineSet
181 360 m 1
 181 301 l 1
 180 301 l 1
 180 201 l 1
 181 201 l 1
 181 -165 l 1
 52 -165 l 1
 52 503 l 1
 177 503 l 1
 178 360 l 1
 181 360 l 1
340 -12 m 3
 222.647460938 -12 149 73.7783203125 149 181 c 1
 149 321 l 1
 149 428.28125 221.86328125 515 341 515 c 3
 490.671875 515 580 400.303710938 580 251 c 3
 580 102.69140625 490.673828125 -12 340 -12 c 3
315 101 m 7
 403.26953125 101 450 168 450 251 c 3
 450 334 403.26953125 402 315 402 c 3
 226.73046875 402 180 334 180 251 c 3
 180 168 226.73046875 101 315 101 c 7
EndSplineSet
Validated: 5
EndChar

StartChar: q
Encoding: 81 113 38
Width: 602
VWidth: 0
Flags: HMW
LayerCount: 3
Fore
SplineSet
421 360 m 1
 424 360 l 1
 425 503 l 1
 550 503 l 1
 550 -165 l 1
 421 -165 l 1
 421 201 l 1
 422 201 l 1
 422 301 l 1
 421 301 l 1
 421 360 l 1
262 -12 m 3
 111.326171875 -12 22 102.69140625 22 251 c 3
 22 400.303710938 111.326171875 515 262 515 c 3
 380.13671875 515 453 428.727539062 453 322 c 1
 453 181 l 1
 453 73.7783203125 379.352539062 -12 262 -12 c 3
287 101 m 3
 375.26953125 101 422 168 422 251 c 3
 422 334 375.26953125 402 287 402 c 3
 198.73046875 402 152 334 152 251 c 3
 152 168 198.73046875 101 287 101 c 3
EndSplineSet
Validated: 5
EndChar

StartChar: t
Encoding: 84 116 39
Width: 349
VWidth: 0
Flags: HMW
AnchorPoint: "Caron" 379 688 basechar 0
AnchorPoint: "Cedilla" 204 0 basechar 0
LayerCount: 3
Fore
SplineSet
326 396 m 1
 -7 396 l 1
 -7 419 l 1
 174 615 l 1
 174 503 l 1
 326 503 l 1
 326 396 l 1
70 150 m 2
 70 434 l 1
 174 615 l 1
 199 615 l 1
 199 175 l 2
 199 121 220.38671875 107 267 107 c 3
 290.10546875 107 310.782226562 112.012695312 331 121 c 1
 331 12 l 1
 313.733398438 1.2001953125 275.4765625 -6 243 -6 c 3
 125.956054688 -6 70 38.423828125 70 150 c 2
EndSplineSet
EndChar

StartChar: e
Encoding: 69 101 40
Width: 534
VWidth: 0
Flags: HMW
AnchorPoint: "Top" 277 574 basechar 0
LayerCount: 3
Fore
SplineSet
92 297 m 1
 444 297 l 1
 444 204 l 1
 92 204 l 1
 92 297 l 1
484 24 m 1
 445.555664062 2 376.619140625 -13 311 -13 c 3
 121 -13 22 92 22 252 c 3
 22 394 115.638671875 517 281 517 c 3
 427.094726562 517 511 403.545898438 511 267 c 3
 511 246 510 224 507 204 c 1
 379 204 l 1
 382 224 384 246 384 266 c 3
 384 351.208984375 350.935546875 407 278 407 c 3
 195.6484375 407 151 350.643554688 151 249 c 3
 151 154.625 200.734375 98 317 98 c 3
 377.423828125 98 440.903320312 115.354492188 484 141 c 1
 484 24 l 1
EndSplineSet
Validated: 5
EndChar

StartChar: s
Encoding: 83 115 41
Width: 419
VWidth: 0
Flags: HMW
AnchorPoint: "Bottom" 210 -40 basechar 0
AnchorPoint: "Cedilla" 225 0 basechar 0
AnchorPoint: "Top" 224 574 basechar 0
LayerCount: 3
Fore
SplineSet
382 489 m 1
 353 378 l 1
 306.389648438 400.814453125 263 406 228 406 c 3
 174 406 153 393 153 367 c 3
 153 346.629882812 163.137695312 336.341796875 198 323 c 2
 279 292 l 2
 352.020507812 264.053710938 400 226.666992188 400 146 c 3
 400 43 324 -14 201 -14 c 3
 136.393554688 -14 74.03125 2.841796875 37 26 c 1
 37 143 l 1
 87.1962890625 110.333007812 147 94 204 94 c 3
 253.302734375 94 274 107 274 135 c 3
 274 156 264.029296875 166.08984375 224.041992188 181.536132812 c 2
 140 214 l 2
 76.1044921875 238.681640625 27 273 27 359 c 3
 27 455 108 517 233 517 c 3
 296.950195312 517 347.942382812 505.592773438 382 489 c 1
EndSplineSet
EndChar

StartChar: c
Encoding: 67 99 42
Width: 456
VWidth: 0
Flags: HMW
AnchorPoint: "Top" 274 574 basechar 0
AnchorPoint: "Cedilla" 283 0 basechar 0
LayerCount: 3
Fore
SplineSet
410 379 m 1
 380.678710938 390.447265625 354.446289062 399 308 399 c 3
 241.518554688 399 153 367.029296875 153 253 c 3
 153 144.176757812 234.5859375 100 314 100 c 3
 356.240234375 100 405.103515625 111.6953125 434 128 c 1
 434 12 l 1
 410.916015625 0.5703125 364.749023438 -12 308 -12 c 3
 184.6640625 -12 22 50.142578125 22 249 c 3
 22 464.479492188 199.77734375 515 322 515 c 3
 376.611328125 515 420.49609375 501.875 440 494 c 1
 410 379 l 1
EndSplineSet
Validated: 1
EndChar

StartChar: r
Encoding: 82 114 43
Width: 372
VWidth: 0
Flags: HMW
AnchorPoint: "Top" 210 574 basechar 0
LayerCount: 3
Fore
SplineSet
52 0 m 1
 52 503 l 1
 174 503 l 1
 175 360 l 1
 181 360 l 1
 181 0 l 1
 52 0 l 1
343 353 m 1
 318.627983941 366.750976562 297.098578559 375 273 375 c 3
 216.954101562 375 181 343.717773438 181 253 c 1
 161 354 l 1
 176 437 214.373046875 510 304 510 c 3
 334.173333333 510 359.999934896 497 377 483 c 1
 343 353 l 1
EndSplineSet
Validated: 5
EndChar

StartChar: v
Encoding: 86 118 44
Width: 505
VWidth: 0
Flags: HMW
LayerCount: 3
Fore
SplineSet
336 0 m 1
 217 0 l 5
 365 503 l 1
 502 503 l 1
 336 0 l 1
167 0 m 1
 3 503 l 1
 145 503 l 1
 293 0 l 1
 167 0 l 1
EndSplineSet
Validated: 5
EndChar

StartChar: m
Encoding: 77 109 45
Width: 813
VWidth: 0
Flags: HMW
LayerCount: 3
Fore
SplineSet
436 321 m 1
 436 435.717773438 506.212890625 511 609 511 c 3
 708.098632812 511 767 442.802734375 767 340 c 2
 767 0 l 1
 638 0 l 1
 638 308 l 2
 638 362.311523438 612.255859375 395 562 395 c 3
 505.326171875 395 474 358.811523438 474 292 c 1
 436 321 l 1
52 0 m 1
 52 503 l 1
 177 503 l 1
 178 360 l 1
 181 360 l 1
 181 0 l 1
 52 0 l 1
160 344 m 1
 160 444.831054688 224.479492188 511 316 511 c 3
 415.098632812 511 474 442.802734375 474 340 c 2
 474 0 l 1
 345 0 l 1
 345 308 l 2
 345 362.311523438 319.255859375 395 269 395 c 3
 212.326171875 395 181 358.811523438 181 292 c 1
 160 344 l 1
EndSplineSet
Validated: 5
EndChar

StartChar: f
Encoding: 70 102 46
Width: 338
VWidth: 0
Flags: HMW
LayerCount: 3
Fore
SplineSet
22 503 m 1
 335 503 l 1
 335 396 l 1
 2 396 l 1
 22 503 l 1
81 548 m 2
 81 695.5 184.590909091 725 253 725 c 3
 284.33874318 725 304.871202257 720 320 714 c 1
 341 602 l 1
 325.737304688 607 305.385742188 612 283 612 c 3
 244 612 210 598 210 548 c 2
 210 0 l 1
 81 0 l 1
 81 548 l 2
EndSplineSet
Validated: 5
EndChar

StartChar: g
Encoding: 71 103 47
Width: 597
VWidth: 0
Flags: HMW
AnchorPoint: "Top" 291 578 basechar 0
LayerCount: 3
Fore
SplineSet
416 360 m 1
 419 360 l 1
 420 503 l 1
 545 503 l 1
 545 65 l 2
 545 -80 457.118164062 -176 265 -176 c 3
 192.977539062 -176 120.538085938 -160.734375 74 -132 c 1
 74 -12 l 1
 127 -48.4921875 200.176757812 -67 265 -67 c 3
 361.607421875 -67 416 -25 416 56 c 2
 416 215 l 1
 417 215 l 1
 417 317 l 1
 416 317 l 1
 416 360 l 1
260 18 m 3
 110.58203125 18 22 126.150390625 22 266 c 3
 22 406.8203125 110.58203125 515 260 515 c 3
 376.282226562 515 448 428.727539062 448 322 c 1
 448 211 l 1
 448 103.778320312 375.509765625 18 260 18 c 3
285 131 m 3
 371.306640625 131 417 191.30078125 417 266 c 3
 417 340.754882812 371.306640625 402 285 402 c 3
 197.385742188 402 151 340.754882812 151 266 c 3
 151 191.30078125 197.385742188 131 285 131 c 3
EndSplineSet
EndChar

StartChar: j
Encoding: 74 106 48
Width: 233
VWidth: 0
Flags: HMW
LayerCount: 3
Fore
SplineSet
47 574 m 1
 47 706 l 1
 186 706 l 1
 186 574 l 1
 47 574 l 1
52 8 m 2
 52 503 l 1
 181 503 l 1
 181 11 l 2
 181 -121 116 -170 24 -170 c 3
 -1.9375 -170 -27.61328125 -164.545454545 -40 -158 c 5
 -40 -50 l 5
 -27.9140625 -54.31953125 -17 -56 -5 -56 c 3
 32 -56 52 -33 52 8 c 2
EndSplineSet
Validated: 1
EndChar

StartChar: k
Encoding: 75 107 49
Width: 512
VWidth: 0
Flags: HMW
LayerCount: 3
Fore
SplineSet
165 261 m 1
 289 304 l 1
 519 0 l 1
 359 0 l 1
 165 261 l 1
160 261 m 1
 361 503 l 5
 515 503 l 1
 289 231 l 1
 160 261 l 1
52 0 m 1
 52 718 l 1
 181 718 l 1
 181 0 l 1
 52 0 l 1
EndSplineSet
Validated: 5
EndChar

StartChar: w
Encoding: 87 119 50
Width: 746
VWidth: 0
Flags: HMW
LayerCount: 3
Fore
SplineSet
616 0 m 5
 507 0 l 5
 609 503 l 1
 738 503 l 1
 616 0 l 5
473 0 m 5
 328 503 l 1
 440 503 l 1
 583 0 l 5
 473 0 l 5
271 0 m 1
 168 0 l 1
 311 503 l 1
 418 503 l 1
 271 0 l 1
128 0 m 1
 8 503 l 1
 140 503 l 1
 244 0 l 1
 128 0 l 1
EndSplineSet
Validated: 5
EndChar

StartChar: x
Encoding: 88 120 51
Width: 498
VWidth: 0
Flags: HMW
LayerCount: 3
Back
SplineSet
136 0 m 5
 -8 0 l 5
 350 503 l 5
 493 503 l 5
 136 0 l 5
356 0 m 5
 7 503 l 5
 156 503 l 5
 504 0 l 5
 356 0 l 5
EndSplineSet
Fore
SplineSet
136 0 m 1
 -7 0 l 1
 165.318359375 261.1875 l 1
 8 503 l 1
 157 503 l 1
 254.659179688 345.084960938 l 1
 351 503 l 1
 494 503 l 1
 335.3515625 260.881835938 l 1
 505 0 l 1
 356 0 l 1
 245.224609375 176.979492188 l 5
 136 0 l 1
EndSplineSet
Validated: 1
EndChar

StartChar: y
Encoding: 89 121 52
Width: 486
VWidth: 0
Flags: HMW
AnchorPoint: "Top" 246 574 basechar 0
LayerCount: 3
Back
SplineSet
316 7 m 6
 277 -108 229 -168 122 -168 c 7
 81 -168 46 -159 28 -149 c 5
 28 -36 l 5
 48 -45 78 -53 102 -53 c 7
 156 -53 180 -20 185 19 c 6
 189 50 l 5
 217 50 l 5
 351 503 l 5
 483 503 l 5
 331 50 l 5
 316 7 l 6
3 503 m 5
 145 503 l 5
 287 50 l 5
 199 -49 l 5
 164 50 l 5
 3 503 l 5
EndSplineSet
Fore
SplineSet
316 7 m 2
 277 -108 229 -168 122 -168 c 3
 81 -168 46 -159 28 -149 c 1
 28 -36 l 1
 48 -45 78 -53 102 -53 c 3
 156 -53 180 -20 185 19 c 2
 189 50 l 1
 217 50 l 1
 351 503 l 1
 483 503 l 1
 316 7 l 2
3 503 m 1
 145 503 l 1
 287 50 l 1
 199 -49 l 1
 3 503 l 1
EndSplineSet
Validated: 5
EndChar

StartChar: z
Encoding: 90 122 53
Width: 442
VWidth: 0
Flags: HMW
AnchorPoint: "Top" 236 574 basechar 0
LayerCount: 3
Fore
SplineSet
12 22 m 1
 92 110 l 1
 449 110 l 1
 415 0 l 1
 12 0 l 1
 12 22 l 1
432 481 m 1
 351 393 l 1
 14 393 l 1
 48 503 l 1
 432 503 l 1
 432 481 l 1
12 22 m 1
 283 471 l 1
 432 481 l 1
 161 34 l 1
 12 22 l 1
EndSplineSet
Validated: 5
EndChar

StartChar: period
Encoding: 14 46 54
Width: 221
VWidth: 0
Flags: HMW
LayerCount: 3
Fore
SplineSet
38 0 m 1
 38 152 l 1
 183 152 l 5
 183 0 l 5
 38 0 l 1
EndSplineSet
Validated: 1
EndChar

StartChar: comma
Encoding: 12 44 55
Width: 231
VWidth: 0
Flags: HMW
AnchorPoint: "Caron" 43 152 mark 0
LayerCount: 3
Fore
SplineSet
54 -69 m 3
 65.8107834407 -69 75.4495055504 -67.1631987865 83.0000021003 -63.1821303059 c 0
 97.1853102905 -55.7027966023 104 -40.655039137 104 -16 c 2
 104 6 l 1
 43 25 l 1
 43 152 l 1
 193 152 l 1
 193 -14 l 2
 193 -99.638671875 146.052734375 -148 75 -148 c 3
 60.5070891204 -148 40.3727213542 -145.5 25 -138 c 1
 19 -63 l 1
 29.8621294071 -67 43.1378705929 -69 54 -69 c 3
EndSplineSet
EndChar

StartChar: two
Encoding: 18 50 56
Width: 546
VWidth: 0
Flags: HMW
LayerCount: 3
Fore
SplineSet
37 0 m 1
 140 120 l 1
 526 120 l 1
 495 0 l 1
 37 0 l 1
46 517 m 1
 80 646 l 1
 121.330078125 674.173828125 180.265625 697 265 697 c 3
 395.047851562 697 493 635.98828125 493 511 c 3
 493 438.196289062 463.970703125 380.033203125 366.55078125 293.958007812 c 2
 267 206 l 2
 227.71484375 171.290039062 200 140 200 88 c 1
 37 0 l 1
 37 32 l 2
 37 114.693359375 86 200.96875 195.064453125 301.57421875 c 2
 279 379 l 2
 346.09765625 440.893554688 358 460.608398438 358 500 c 3
 358 551.59765625 313 576 246 576 c 3
 165.625 576 107.3984375 553.383789062 46 517 c 1
EndSplineSet
Validated: 5
Colour: ffff
EndChar

StartChar: one
Encoding: 17 49 57
Width: 546
VWidth: 0
Flags: HMW
LayerCount: 3
Fore
SplineSet
391 693 m 5
 391 572 l 5
 72 508 l 5
 105 637 l 5
 391 693 l 5
257 0 m 5
 257 653 l 5
 391 693 l 5
 391 0 l 5
 257 0 l 5
EndSplineSet
Validated: 5
EndChar

StartChar: three
Encoding: 19 51 58
Width: 546
VWidth: 0
Flags: HMW
LayerCount: 3
Fore
SplineSet
508 202 m 3
 508 73.751953125 405.373046875 -8 255 -8 c 3
 166.299804688 -8 95.009765625 13.83984375 49 44 c 1
 49 173 l 1
 115 135 166.838867188 112 252 112 c 3
 314.544921875 112 369 139.845703125 369 203 c 3
 369 278.186523438 277.432617188 301.01953125 155 302 c 1
 183 408 l 1
 274 379 l 1
 377.208984375 379 508 327.219726562 508 202 c 3
352 498 m 3
 352 553.375 298.434570312 579 236 579 c 3
 167.359375 579 102.485351562 556.766601562 45 521 c 1
 79 650 l 1
 121.447265625 675.96484375 180.236328125 697 269 697 c 3
 392.826171875 697 490 635.98828125 490 524 c 3
 490 405.333007812 382.745117188 346 326 346 c 1
 183 408 l 1
 277.212890625 410.022460938 352 427 352 498 c 3
EndSplineSet
Validated: 5
EndChar

StartChar: zero
Encoding: 16 48 59
Width: 546
VWidth: 0
Flags: HMW
LayerCount: 3
Fore
SplineSet
272 700 m 3
 436.872070312 700 524 580.854492188 524 346 c 3
 524 108.91796875 436.872070312 -12 272 -12 c 3
 108.436523438 -12 22 108.91796875 22 346 c 3
 22 580.854492188 108.436523438 700 272 700 c 3
272 579 m 3
 195.930664062 579 156 510.575195312 156 346 c 3
 156 179.342773438 195.930664062 109 272 109 c 3
 349.380859375 109 390 179.342773438 390 346 c 3
 390 510.575195312 349.380859375 579 272 579 c 3
EndSplineSet
Validated: 1
EndChar

StartChar: four
Encoding: 20 52 60
Width: 546
VWidth: 0
Flags: HMW
LayerCount: 3
Fore
SplineSet
8 264 m 1
 553 264 l 1
 531 155 l 1
 8 155 l 1
 8 264 l 1
325 0 m 1
 325 424 l 1
 459 461 l 1
 459 0 l 1
 325 0 l 1
8 264 m 5
 269 688 l 5
 418 688 l 1
 156 264 l 1
 8 264 l 5
EndSplineSet
Validated: 5
EndChar

StartChar: five
Encoding: 21 53 61
Width: 546
VWidth: 0
Flags: HMW
LayerCount: 3
Fore
SplineSet
63 371 m 5
 104 688 l 5
 223 688 l 5
 181 371 l 5
 63 371 l 5
103 565 m 5
 104 688 l 5
 486 688 l 5
 453 565 l 5
 103 565 l 5
509 227 m 7
 509 82.8408203125 401.916015625 -8 240 -8 c 7
 157.041992188 -8 85.4462890625 13.419921875 41 43 c 5
 41 172 l 5
 101.795898438 135 161.073242188 112 243 112 c 7
 313.461914062 112 374 143.82421875 374 218 c 7
 374 300.291015625 303 327 219 327 c 7
 165.697265625 327 98.6474609375 316 54 301 c 5
 67 399 l 5
 110.477539062 415.91796875 190.802734375 440 273 440 c 7
 403.481445312 440 509 364.942382812 509 227 c 7
EndSplineSet
Validated: 5
EndChar

StartChar: six
Encoding: 22 54 62
Width: 546
VWidth: 0
Flags: HMW
LayerCount: 3
Fore
SplineSet
26 330 m 1
 26 96 135.783203125 -12 299 -12 c 3
 439.221679688 -12 537 84 537 226 c 3
 537 354.012695312 435.150390625 444 319 444 c 3
 216.059570312 444 146 388.811523438 146 309 c 1
 175 216 l 1
 175 277.142578125 223.849609375 323 290 323 c 3
 356.150390625 323 405 277.142578125 405 216 c 3
 405 153.859375 356.150390625 107 290 107 c 3
 223.849609375 107 175 153.859375 175 216 c 1
 153 339 l 1
 153 464.713867188 198.024414062 579 334 579 c 3
 390 579 438.776367188 558.090820312 469 533 c 1
 500 653 l 1
 462.4140625 679.211914062 408 700 340 700 c 3
 111.487304688 700 26 528 26 330 c 1
EndSplineSet
Validated: 5
EndChar

StartChar: seven
Encoding: 23 55 63
Width: 546
VWidth: 0
Flags: HMW
LayerCount: 3
Fore
SplineSet
536 688 m 1
 536 664 l 1
 456 565 l 1
 11 565 l 1
 44 688 l 1
 536 688 l 1
86 0 m 1
 113 155 308 512 413 664 c 1
 536 664 l 1
 443.609375 508 262.298828125 155 233 0 c 1
 86 0 l 1
EndSplineSet
Validated: 5
EndChar

StartChar: eight
Encoding: 24 56 64
Width: 546
VWidth: 0
Flags: HMW
LayerCount: 3
Fore
SplineSet
273 371 m 3
 439.7890625 371 526 303.491210938 526 186 c 3
 526 76.8623046875 433.764648438 -12 273 -12 c 3
 112.235351562 -12 20 76.8623046875 20 186 c 7
 20 303.491210938 106.2109375 371 273 371 c 3
273 299 m 3
 194.514648438 299 153 254.387695312 153 202 c 7
 153 149.421875 194.514648438 104 273 104 c 3
 351.485351562 104 393 149.884765625 393 203 c 3
 393 254.84765625 351.485351562 299 273 299 c 3
273 699 m 3
 421.056640625 699 506 611.849609375 506 509 c 3
 506 408.201171875 431.142578125 336 273 336 c 3
 114.857421875 336 40 408.201171875 40 509 c 7
 40 611.849609375 124.943359375 699 273 699 c 3
273 585 m 3
 208.961914062 585 172 544.067382812 172 496 c 7
 172 447.713867188 208.961914062 406 273 406 c 3
 337.038085938 406 374 447.713867188 374 496 c 3
 374 544.067382812 337.038085938 585 273 585 c 3
EndSplineSet
Validated: 5
EndChar

StartChar: nine
Encoding: 25 57 65
Width: 546
VWidth: 0
Flags: HMW
LayerCount: 3
Fore
SplineSet
520 353 m 1
 520 592 410.216796875 700 249 700 c 3
 106.778320312 700 9 601.209960938 9 460 c 3
 9 330.225585938 110.849609375 239 230 239 c 3
 329.940429688 239 400 295.82421875 400 378 c 1
 371 470 l 1
 371 407.713867188 322.150390625 361 256 361 c 3
 189.849609375 361 141 407.713867188 141 470 c 3
 141 533.280273438 189.849609375 581 256 581 c 3
 322.150390625 581 371 533.280273438 371 470 c 1
 394 350 l 1
 394 228.23828125 360.024414062 108 217 108 c 3
 151.419921875 108 98.0361328125 130.638671875 51 164 c 1
 51 34 l 1
 83.25390625 10.41015625 148.26171875 -12 223 -12 c 3
 449.043945312 -12 520 165 520 353 c 1
EndSplineSet
Validated: 5
EndChar

StartChar: quotesingle
Encoding: 7 39 67
Width: 210
VWidth: 0
Flags: HMW
LayerCount: 3
Fore
SplineSet
67 389 m 5
 41 595 l 1
 41 688 l 1
 169 688 l 1
 169 595 l 1
 143 389 l 1
 67 389 l 5
EndSplineSet
Validated: 1
EndChar

StartChar: f_f
Encoding: 65537 -1 70
Width: 660
VWidth: 0
Flags: HMW
LayerCount: 3
Fore
SplineSet
246 503 m 1
 378 503 l 1
 378 396 l 1
 246 396 l 1
 246 503 l 1
EndSplineSet
Refer: 46 102 N 1 0 0 1 321 0 2
Refer: 46 102 N 1 0 0 1 -2 0 2
Validated: 5
Ligature2: "'liga' Standard Ligatures in Latin lookup 0-1" f f
LCarets2: 1 0
Ligature2: "'liga' Standard Ligatures in Latin lookup 0-1" f f
EndChar

StartChar: a.ss01
Encoding: 65538 -1 71
Width: 602
VWidth: 0
Flags: HMW
LayerCount: 3
Fore
SplineSet
550 0 m 1
 425 0 l 1
 424 143 l 1
 421 143 l 1
 421 201 l 1
 422 201 l 1
 422 301 l 1
 421 301 l 1
 421 360 l 1
 424 360 l 1
 425 503 l 1
 550 503 l 1
 550 0 l 1
262 -12 m 3
 111.326171875 -12 22 102.69140625 22 251 c 3
 22 400.303710938 111.326171875 515 262 515 c 3
 380.13671875 515 453 428.727539062 453 322 c 1
 453 181 l 1
 453 73.7783203125 379.352539062 -12 262 -12 c 3
287 101 m 3
 375.26953125 101 422 168 422 251 c 3
 422 334 375.26953125 402 287 402 c 3
 198.73046875 402 152 334 152 251 c 3
 152 168 198.73046875 101 287 101 c 3
EndSplineSet
Validated: 5
EndChar

StartChar: parenleft
Encoding: 8 40 72
Width: 337
VWidth: 0
Flags: HMW
LayerCount: 3
Fore
SplineSet
140 300 m 3
 140 149.645665519 200 -18.4685314685 333 -38 c 1
 318 -133 l 1
 125 -117.78817734 23 78.1415079195 23 302 c 3
 23 516.222758314 123 711.731707317 318 726 c 1
 333 634 l 1
 192.176632332 610.924713787 140 455.394177668 140 300 c 3
EndSplineSet
EndChar

StartChar: dollar
Encoding: 4 36 74
Width: 501
VWidth: 0
Flags: HMW
LayerCount: 3
Fore
SplineSet
199 -102 m 1
 199 58 l 1
 321 58 l 1
 321 -102 l 1
 199 -102 l 1
199 630 m 1
 199 790 l 1
 321 790 l 1
 321 630 l 1
 199 630 l 1
EndSplineSet
Refer: 24 83 N 1 0 0 1 -2 0 2
EndChar

StartChar: bracketleft
Encoding: 59 91 77
Width: 338
VWidth: 0
Flags: HMW
LayerCount: 3
Fore
SplineSet
130 718 m 1
 333 718 l 1
 307 619 l 5
 130 619 l 5
 130 718 l 1
130 -26 m 1
 307 -26 l 1
 333 -125 l 1
 130 -125 l 1
 130 -26 l 1
174 -125 m 1
 58 -125 l 1
 58 718 l 1
 174 718 l 1
 174 -125 l 1
EndSplineSet
Validated: 5
EndChar

StartChar: exclam
Encoding: 1 33 79
Width: 251
VWidth: 0
Flags: HMW
LayerCount: 3
Fore
SplineSet
80 226 m 1
 58 511 l 1
 58 688 l 1
 194 688 l 1
 194 511 l 1
 172 226 l 1
 80 226 l 1
EndSplineSet
Refer: 54 46 S 1 0 0 1 15 0 2
EndChar

StartChar: question
Encoding: 31 63 80
Width: 463
VWidth: 0
Flags: HMW
LayerCount: 3
Fore
SplineSet
157 235 m 1
 157 314.435546875 192.864257812 349.677734375 248 401 c 0
 275.482421875 426.58203125 305 455 305 501 c 3
 305 555 261 576 200 576 c 3
 123.111328125 576 70.166015625 554 13 518 c 1
 47 649 l 1
 91 677 138.756835938 697 222 697 c 3
 343 697 440 636 440 522 c 3
 440 447.801757812 406.053710938 405.234375 350.21875 353.93359375 c 0
 299 306.874023438 269 280 264 226 c 1
 157 226 l 1
 157 226 157 230.5 157 235 c 1
EndSplineSet
Refer: 54 46 N 1 0 0 1 104 0 2
EndChar

StartChar: ampersand
Encoding: 6 38 81
Width: 589
VWidth: 0
Flags: HMW
LayerCount: 3
Fore
SplineSet
213 406 m 1
 244 325 l 1
 180 313.833984375 156 270.357421875 156 214 c 3
 156 149 205.939453125 97 278 97 c 3
 379.458984375 97 433 205 445 382 c 1
 555 347 l 1
 541.827148438 153 426.9765625 -10 246 -10 c 3
 133 -10 29 68 29 193 c 3
 29 314 112 382 213 406 c 1
440 0 m 1
 155 367 l 2
 116.807617188 416.180664062 93 459.4765625 93 518 c 3
 93 642.33984375 206.466796875 698 313 698 c 3
 373.561523438 698 426.129882812 683.447265625 462 660 c 1
 432 541 l 1
 398.192382812 562.24609375 357.633789062 581.891601562 305 581.891601562 c 3
 273 581.891601562 223 572.041992188 223 518 c 3
 223 495.797851562 230.698242188 474 258.877929688 436.40625 c 2
 586 0 l 1
 440 0 l 1
EndSplineSet
Validated: 5
EndChar

StartChar: asterisk
Encoding: 10 42 82
Width: 473
VWidth: 0
Flags: HMW
LayerCount: 3
Fore
SplineSet
279 454 m 1
 314 432 355 389 386 347 c 2
 407 319 l 1
 327 261 l 1
 305 289 l 2
 273 331 248 383 237 423 c 1
 226 383 201 331 169 289 c 2
 147 261 l 1
 67 319 l 1
 89 347 l 2
 121 389 161 431 195 454 c 1
 191 454 186 454 182 454 c 0
 141 454 90 461 46 477 c 2
 15 488 l 1
 45 582 l 1
 76 572 l 2
 125 556 178 530 210 504 c 1
 195 542 186 599 186 652 c 2
 186 688 l 1
 285 688 l 1
 285 652 l 2
 285 599 277 542 262 504 c 1
 294 530 346 553 397 572 c 2
 427 583 l 1
 458 488 l 1
 426 478 l 2
 381 464 331 454 290 454 c 0
 286 454 283 454 279 454 c 1
EndSplineSet
Validated: 1
EndChar

StartChar: slash
Encoding: 15 47 83
Width: 465
VWidth: 0
Flags: HMW
LayerCount: 3
Fore
SplineSet
3 -125 m 1
 342 718 l 1
 462 718 l 1
 123 -125 l 1
 3 -125 l 1
EndSplineSet
Validated: 1
EndChar

StartChar: backslash
Encoding: 60 92 84
Width: 465
VWidth: 0
Flags: HMW
LayerCount: 3
Fore
SplineSet
462 -125 m 1
 342 -125 l 1
 3 718 l 1
 123 718 l 5
 462 -125 l 1
EndSplineSet
Validated: 1
EndChar

StartChar: underscore
Encoding: 63 95 85
Width: 516
VWidth: 0
Flags: HMW
LayerCount: 3
Fore
SplineSet
514 0 m 5
 514 -112 l 5
 -6 -112 l 1
 23 0 l 1
 514 0 l 5
EndSplineSet
Validated: 1
EndChar

StartChar: plus
Encoding: 11 43 86
Width: 491
VWidth: 0
Flags: HMW
LayerCount: 3
Fore
SplineSet
194 82 m 1
 194 534 l 5
 301 534 l 5
 301 82 l 1
 194 82 l 1
41 362 m 1
 467 362 l 1
 467 265 l 1
 16 265 l 1
 41 362 l 1
EndSplineSet
EndChar

StartChar: braceleft
Encoding: 91 123 87
Width: 313
VWidth: 0
Flags: HMW
LayerCount: 3
Fore
SplineSet
149 297 m 5
 18 297 l 1
 18 339 l 1
 75.78125 341.505859375 126 361.701171875 126 415 c 3
 126 432 119.9375 450.421875 103.80859375 469.642578125 c 0
 85.046875 492 66 518.506835938 66 567 c 3
 66 673.869140625 196.459960938 724 280 724 c 1
 295 631 l 1
 228.426757812 623.8671875 184 608.751953125 184 573 c 3
 184 550.893554688 192.569335938 539.305664062 209.889648438 518 c 0
 228.022460938 495.694335938 250 464 250 425 c 3
 250 357 203.540039062 316.248046875 149 297 c 5
149 297 m 5
 203.540039062 277.751953125 250 237 250 169 c 3
 250 129 228.064453125 99.1083984375 209.889648438 76 c 0
 192.911132812 54.4140625 184 42.1064453125 184 21 c 3
 184 -14.751953125 228.426757812 -29.8671875 295 -37 c 1
 280 -130 l 1
 196.459960938 -130 66 -79.869140625 66 27 c 3
 66 75.4931640625 85.361328125 101.739257812 103.80859375 124.357421875 c 0
 119.829101562 144 126 162 126 179 c 3
 126 232.298828125 75.78125 252.494140625 18 255 c 1
 18 297 l 1
 149 297 l 5
EndSplineSet
Validated: 5
EndChar

StartChar: bar
Encoding: 92 124 88
Width: 231
VWidth: 0
Flags: HMW
LayerCount: 3
Fore
SplineSet
58 -125 m 1
 58 718 l 1
 173 718 l 1
 173 -125 l 1
 58 -125 l 1
EndSplineSet
Validated: 1
EndChar

StartChar: numbersign
Encoding: 3 35 90
Width: 694
VWidth: 0
Flags: HMW
LayerCount: 3
Fore
SplineSet
616 288 m 1
 616 187 l 1
 13 187 l 1
 40 288 l 1
 616 288 l 1
676 516 m 1
 676 415 l 1
 73 415 l 1
 100 516 l 1
 676 516 l 1
325 0 m 1
 505 688 l 1
 622 688 l 1
 442 0 l 1
 325 0 l 1
81 0 m 1
 261 688 l 1
 378 688 l 1
 198 0 l 1
 81 0 l 1
EndSplineSet
Validated: 5
EndChar

StartChar: percent
Encoding: 5 37 91
Width: 786
VWidth: 0
Flags: HMW
LayerCount: 3
Fore
SplineSet
604 369 m 3
 707 369 763 295 763 183 c 3
 763 70 707 -5 604 -5 c 3
 501 -5 446 70 446 183 c 3
 446 295 501 369 604 369 c 3
604 284 m 3
 567 284 547 252 547 183 c 3
 547 113 567 80 604 80 c 3
 642 80 662 113 662 183 c 3
 662 252 642 284 604 284 c 3
181 693 m 3
 285 693 340 619 340 507 c 3
 340 394 285 319 181 319 c 3
 78 319 23 394 23 507 c 3
 23 619 78 693 181 693 c 3
181 608 m 3
 144 608 124 576 124 507 c 3
 124 437 144 404 181 404 c 3
 219 404 239 437 239 507 c 3
 239 576 219 608 181 608 c 3
EndSplineSet
Refer: 296 8260 N 1 0 0 1 101 0 2
EndChar

StartChar: equal
Encoding: 29 61 92
Width: 504
VWidth: 0
Flags: HMW
LayerCount: 3
Fore
SplineSet
57 259 m 5
 465 259 l 5
 465 157 l 1
 31 157 l 1
 57 259 l 5
57 455 m 1
 465 455 l 1
 465 353 l 1
 31 353 l 1
 57 455 l 1
EndSplineSet
Validated: 1
EndChar

StartChar: at
Encoding: 32 64 93
Width: 973
VWidth: 0
Flags: HMW
LayerCount: 3
Fore
SplineSet
472 146 m 3
 544 146 582 203 582 273 c 3
 582 343 544 401 472 401 c 3
 400 401 362 343 362 273 c 3
 362 203 400 146 472 146 c 3
447 35 m 3
 315 35 232 139.125 232 273 c 3
 232 407.306640625 315 511 447 511 c 3
 542.5546875 511 601 439.705078125 601 351 c 1
 616 217 l 1
 616 116.098632812 550.84375 35 447 35 c 3
746 36 m 3
 633.354492188 36 591 116.942382812 591 189 c 1
 581 189 l 1
 581 247 l 1
 582 247 l 1
 582 301 l 1
 581 301 l 1
 581 358 l 1
 584 358 l 1
 585 501 l 1
 710 501 l 1
 710 195 l 2
 710 155 720 131 758 131 c 3
 815.59765625 131 837 226.483398438 837 309 c 3
 837 478.08203125 706.956054688 637 494 637 c 3
 261.169921875 637 137 454.317382812 137 273 c 3
 137 84.0283203125 263.393145893 -85 522 -85 c 3
 590.769230769 -85 678.202764977 -64.4764530302 745 -30 c 5
 745 -132 l 1
 690.229492188 -161 598.163085938 -182 510 -182 c 3
 194.779296875 -182 28 28.7783203125 28 267 c 3
 28 514.00390625 191.208007812 735 505 735 c 3
 776.547851562 735 945 532.947265625 945 309 c 0
 945 143.346679688 867.327148438 36 746 36 c 3
EndSplineSet
EndChar

StartChar: AE
Encoding: 133 198 100
Width: 904
VWidth: 0
Flags: HMW
LayerCount: 3
Fore
SplineSet
490 412.916992188 m 1
 810 412.916992188 l 1
 778 293 l 1
 488 292.916992188 l 1
 490 412.916992188 l 1
490 122 m 1
 868 122 l 1
 901 0 l 1
 490 0 l 1
 490 122 l 1
490 688 m 1
 880 688 l 1
 848 566 l 1
 490 566 l 1
 490 688 l 1
425 0 m 1
 425 688 l 1
 559 688 l 1
 559 0 l 1
 425 0 l 1
-7 0 m 1
 339 688 l 5
 474 688 l 1
 134 0 l 1
 -7 0 l 1
160 268 m 1
 462 268 l 1
 462 154 l 1
 160 154 l 1
 160 268 l 1
EndSplineSet
Validated: 5
EndChar

StartChar: Oslash
Encoding: 151 216 116
Width: 784
VWidth: 0
Flags: HMW
LayerCount: 3
Back
Refer: 13 79 N 1 0 0 1 -2 0 2
Fore
SplineSet
37 18 m 1
 181.409179688 182 l 1
 173.409179688 181 l 1
 520.225585938 576 l 1
 528.225585938 577 l 1
 667 734 l 1
 744 670 l 5
 611.37109375 520 l 5
 619.37109375 521 l 1
 257.62890625 107 l 1
 249.62890625 106 l 1
 114 -46 l 1
 37 18 l 1
EndSplineSet
Refer: 13 79 N 1 0 0 1 -2 0 2
Validated: 5
EndChar

StartChar: OE
Encoding: 243 338 117
Width: 1116
VWidth: 0
Flags: HMW
LayerCount: 3
Fore
SplineSet
386 705 m 3
 610.834960938 705 727 538.086914062 727 346 c 3
 727 151.690429688 610.834960938 -17 386 -17 c 3
 151.944335938 -17 18 151.690429688 18 346 c 3
 18 538.086914062 151.944335938 705 386 705 c 3
392 584 m 3
 235.845703125 584 154 468.033203125 154 344 c 3
 154 219.966796875 235.926757812 104 392 104 c 3
 546.073242188 104 630 219.966796875 630 344 c 3
 630 468.033203125 545.985351562 584 392 584 c 3
691 412.916992188 m 1
 1022 412.916992188 l 1
 990 293 l 1
 689 292.916992188 l 1
 691 412.916992188 l 1
691 122 m 1
 1080 122 l 1
 1113 0 l 1
 691 0 l 1
 691 122 l 1
691 688 m 1
 1092 688 l 1
 1060 566 l 1
 691 566 l 1
 691 688 l 1
630 0 m 1
 630 688 l 1
 761 688 l 1
 761 0 l 1
 630 0 l 1
EndSplineSet
Validated: 5
EndChar

StartChar: ae
Encoding: 165 230 130
Width: 812
VWidth: 0
Flags: HMW
LayerCount: 3
Fore
SplineSet
383 297 m 1
 722 297 l 1
 722 204 l 1
 383 204 l 1
 383 297 l 1
762 24 m 1
 725.333007812 2 659.584960938 -13 597 -13 c 3
 411.602539062 -13 315 92 315 252 c 3
 315 384 406.107421875 517 567 517 c 3
 708.012695312 517 789 404.454101562 789 269 c 3
 789 247.333007812 788 224.634765625 785 204 c 1
 657 204 l 1
 660 224.645507812 662 247.354492188 662 268 c 3
 662 352 629.559570312 407 556 407 c 3
 481.484375 407 440 350.643554688 440 249 c 3
 440 154.625 490.249023438 98 601 98 c 3
 659.252929688 98 720.451171875 115.354492188 762 141 c 1
 762 24 l 1
315 319 m 1
 315 373 279 402 206 402 c 3
 142 402 89 384 48 361 c 1
 79 481 l 1
 120 501 169 512 229 512 c 3
 366.6953125 512 440 437 440 327 c 1
 315 319 l 1
440 327 m 1
 440 143 l 1
 315 143 l 1
 315 319 l 1
 440 327 l 1
151 157 m 3
 151 123 172 98 222 98 c 3
 280 98 315 133 315 198 c 1
 405 171 l 1
 405 63.7431640625 316.711914062 -7 194 -7 c 3
 81 -7 22 58 22 141 c 3
 22 280 146.9765625 297.26953125 248 306 c 2
 329 313 l 1
 329 226 l 1
 234 217 l 2
 181.001953125 211.979492188 151 196 151 157 c 3
EndSplineSet
Validated: 5
EndChar

StartChar: dotlessi
Encoding: 222 305 136
Width: 233
VWidth: 0
Flags: HMW
AnchorPoint: "Top" 117 574 basechar 0
LayerCount: 3
Fore
SplineSet
52 0 m 1
 52 503 l 1
 181 503 l 1
 181 0 l 1
 52 0 l 1
EndSplineSet
EndChar

StartChar: oslash
Encoding: 183 248 147
Width: 584
VWidth: 0
Flags: HMW
LayerCount: 3
Fore
SplineSet
22 14 m 1
 146.455078125 155 l 1
 143.455078125 155 l 1
 365.305664062 407 l 1
 368.305664062 407 l 1
 491 546 l 1
 562 489 l 1
 449.870117188 362 l 1
 452.870117188 362 l 1
 209.010742188 85 l 1
 206.010742188 85 l 1
 93 -43 l 1
 22 14 l 1
EndSplineSet
Refer: 27 111 N 1 0 0 1 -2 0 2
Validated: 5
EndChar

StartChar: dieresis
Encoding: 103 168 155
Width: 430
VWidth: 0
Flags: HMW
AnchorPoint: "Top" 215 562 mark 0
LayerCount: 3
Fore
SplineSet
250 562 m 5
 250 688 l 5
 382 688 l 5
 382 562 l 5
 250 562 l 5
48 562 m 5
 48 688 l 5
 180 688 l 5
 180 562 l 5
 48 562 l 5
EndSplineSet
Validated: 1
EndChar

StartChar: germandbls
Encoding: 158 223 156
Width: 566
VWidth: 0
Flags: HMW
LayerCount: 3
Fore
SplineSet
52 514 m 2
 52 687 178.309570312 725 269 725 c 3
 360.369140625 725 462 680 462 576 c 3
 462 513.701171875 437.94921875 491.672851562 403.181640625 460 c 0
 376.645507812 435.825195312 366 423.579101562 366 399 c 3
 366 379 377.970703125 362.938476562 401 352 c 2
 441 333 l 2
 531.525390625 290.000976562 560 243.170898438 560 167 c 3
 560 66.2255859375 490.201171875 -8 358 -8 c 3
 320 -8 270 2 237 20 c 1
 237 134 l 1
 273.840820312 110.666992188 326.043945312 99 361 99 c 3
 408 99 434 124.89453125 434 157 c 3
 434 184.458007812 421.852539062 205.689453125 375 228 c 2
 333 248 l 2
 270.778320312 277.629882812 240 312.45703125 240 375 c 3
 240 429 263.752929688 457.778320312 293 483.958984375 c 0
 321.040039062 509.05859375 336 523.336914062 336 552 c 3
 336 595 301.546875 612 263 612 c 3
 224 612 181 592 181 519 c 2
 181 0 l 1
 52 0 l 1
 52 514 l 2
EndSplineSet
Validated: 1
EndChar

StartChar: grave
Encoding: 64 96 157
Width: 236
VWidth: 0
Flags: HMW
AnchorPoint: "Top" 159 522 mark 0
LayerCount: 3
Fore
SplineSet
131 522 m 5
 8 688 l 5
 145 688 l 5
 233 522 l 29
 131 522 l 5
EndSplineSet
Validated: 1
EndChar

StartChar: ring
Encoding: 286 730 159
Width: 252
VWidth: 0
Flags: HMW
AnchorPoint: "Top" 126 518 mark 0
LayerCount: 3
Fore
SplineSet
80.5 603 m 3
 80.5 580.174804688 95.45703125 561.5 126 561.5 c 3
 156.54296875 561.5 171.5 580.174804688 171.5 603 c 3
 171.5 625.825195312 156.54296875 644.5 126 644.5 c 3
 95.45703125 644.5 80.5 625.825195312 80.5 603 c 3
18 603 m 3
 18 655.25 55.1044921875 698 126 698 c 3
 196.895507812 698 234 655.25 234 603 c 3
 234 550.75 196.895507812 508 126 508 c 3
 55.1044921875 508 18 550.75 18 603 c 3
EndSplineSet
EndChar

StartChar: cedilla
Encoding: 119 184 160
Width: 236
VWidth: 0
Flags: HMW
AnchorPoint: "Cedilla" 130 0 mark 0
LayerCount: 3
Fore
SplineSet
133 22 m 1
 174.740326509 -5.48093377976 205.30859375 -39.0360165551 205.30859375 -84 c 3
 205.30859375 -133.747070312 168 -175 91.30859375 -175 c 3
 57.3232421875 -175 22.3671875 -165.94140625 4 -153 c 1
 4 -67 l 1
 20.7021484375 -76.947265625 50.068359375 -85 70.30859375 -85 c 3
 94 -85 105 -74 105 -54 c 3
 105 -35.7037037037 97.5843604206 -9.21448206019 79 22 c 1
 133 22 l 1
EndSplineSet
EndChar

StartChar: circumflex
Encoding: 281 710 161
Width: 346
VWidth: 0
Flags: HMW
AnchorPoint: "Top" 173 522 mark 0
LayerCount: 3
Fore
SplineSet
241 522 m 1
 118 688 l 1
 245 688 l 1
 343 522 l 1
 241 522 l 1
105 522 m 1
 3 522 l 1
 101 688 l 1
 228 688 l 1
 105 522 l 1
EndSplineSet
Validated: 5
EndChar

StartChar: tilde
Encoding: 288 732 163
Width: 385
VWidth: 0
Flags: HMW
AnchorPoint: "Top" 192 545 mark 0
LayerCount: 3
Fore
SplineSet
12 560 m 1
 12 642.282226562 56 693 129 693 c 3
 166.1484375 693 189.631835938 674.877929688 213.26953125 656.21875 c 0
 233.555664062 640.204101562 245 633 264 633 c 3
 284.655273438 633 299.719726562 650.4921875 302 691 c 1
 373 678 l 1
 373 595.717773438 326.4453125 545 257 545 c 3
 221.64453125 545 195.874023438 563.100585938 170 583 c 0
 150.073242188 598.325195312 140 606 121 606 c 3
 100.864257812 606 85.8076171875 594.200195312 84 547 c 1
 12 560 l 1
EndSplineSet
EndChar

StartChar: oe
Encoding: 244 339 164
Width: 919
VWidth: 0
Flags: HMW
LayerCount: 3
Fore
SplineSet
488 297 m 1
 829 297 l 1
 829 204 l 1
 488 204 l 1
 488 297 l 1
869 24 m 1
 832 2 765 -13 702 -13 c 3
 517.633789062 -13 422 92 422 252 c 3
 422 394 513.546875 517 674 517 c 3
 815 517 896 404 896 269 c 3
 896 247 895 225 892 204 c 1
 764 204 l 1
 767 225 769 247 769 268 c 3
 769 352 737 407 663 407 c 3
 589 407 547 351 547 249 c 3
 547 155 595 98 708 98 c 3
 766 98 827 115 869 141 c 1
 869 24 l 1
287 518 m 3
 452.212890625 518 547 402 547 252 c 3
 547 101 452.212890625 -15 287 -15 c 3
 118.610351562 -15 22 101 22 252 c 3
 22 402 118.610351562 518 287 518 c 3
287 404 m 3
 198.731445312 404 152 334.092773438 152 252 c 3
 152 169.913085938 198.731445312 99 287 99 c 3
 375.268554688 99 422 169.913085938 422 252 c 3
 422 334.092773438 375.268554688 404 287 404 c 3
EndSplineSet
Validated: 5
EndChar

StartChar: cent
Encoding: 97 162 167
Width: 456
VWidth: 0
Flags: HMW
LayerCount: 3
Fore
SplineSet
222 -102 m 1
 222 58 l 1
 342 58 l 1
 342 -102 l 1
 222 -102 l 1
222 445 m 1
 222 605 l 5
 342 605 l 5
 342 445 l 1
 222 445 l 1
EndSplineSet
Refer: 42 99 N 1 0 0 1 -2 0 2
Validated: 5
EndChar

StartChar: yen
Encoding: 100 165 168
Width: 561
VWidth: 0
Flags: HMW
LayerCount: 3
Fore
SplineSet
68 186 m 1
 501 186 l 1
 501 101 l 1
 52 101 l 1
 68 186 l 1
68 334 m 1
 501 334 l 1
 501 249 l 1
 52 249 l 1
 68 334 l 1
EndSplineSet
Refer: 22 89 N 1 0 0 1 -2 0 2
Validated: 5
EndChar

StartChar: Euro
Encoding: 307 8364 169
Width: 617
VWidth: 0
Flags: HMW
LayerCount: 3
Fore
SplineSet
567 551 m 1
 541.270507812 560.239257812 501.872070312 572 448 572 c 3
 345.080078125 572 210 521.241210938 210 347 c 3
 210 176.276367188 332.958984375 111 455 111 c 3
 507.190429688 111 557.75 122.87890625 592 139 c 1
 592 15 l 1
 565.440429688 2.4814453125 512.767578125 -11 447 -11 c 3
 280.361328125 -11 74 72.3076171875 74 343 c 3
 74 629.174804688 306.061523438 697 466 697 c 3
 527.614257812 697 577.084960938 683.737304688 599 676 c 1
 567 551 l 1
22 312 m 1
 505 312 l 1
 483 227 l 1
 6 227 l 1
 22 312 l 1
22 460 m 1
 543 460 l 1
 521 375 l 1
 6 375 l 1
 22 460 l 1
EndSplineSet
Validated: 5
EndChar

StartChar: sterling
Encoding: 98 163 170
Width: 540
VWidth: 0
Flags: HMW
LayerCount: 3
Fore
SplineSet
106 122 m 1
 504 122 l 1
 537 0 l 1
 106 0 l 1
 106 122 l 1
28 394 m 1
 439 395 l 1
 410 286 l 1
 8 285 l 1
 28 394 l 1
41 0 m 1
 41 112 l 1
 85.3330078125 143 111 188 111 244 c 3
 111 291.330078125 101.669921875 319.533203125 92.0224609375 349 c 1
 81.693359375 380.545898438 71 413.540039062 71 473 c 3
 71 615 178.874023438 698 345 698 c 3
 410.762695312 698 468 684 509 665 c 1
 477 543 l 1
 424.846679688 567.177734375 383.1171875 577 334 577 c 3
 243 577 205 535 205 477 c 3
 205 433 215 399.5 225 366 c 1
 235 332.5 245 299 245 255 c 3
 245 193.713867188 224.791992188 143.180664062 182 112 c 1
 182 0 l 1
 41 0 l 1
EndSplineSet
Validated: 5
EndChar

StartChar: copyright
Encoding: 104 169 181
Width: 774
VWidth: 0
Flags: HMW
LayerCount: 3
Fore
SplineSet
493.16015625 432.48046875 m 1
 475.880173142 438.42046875 449.420199008 445.98046875 413.240234375 445.98046875 c 3
 363.66572094 445.98046875 298.599609375 423.686697648 298.599609375 347.16015625 c 3
 298.599609375 271.376161135 358.302252531 242.400390625 417.559570312 242.400390625 c 3
 452.11983817 242.400390625 485.600097656 249.960108902 508.280273438 260.219726562 c 1
 508.280273438 169.5 l 1
 490.871594407 161.959963831 456.347439593 153.83984375 413.240234375 153.83984375 c 3
 318.429842126 153.83984375 201.01953125 198.826521146 201.01953125 345 c 3
 201.01953125 499.535048188 332.727074373 536.16015625 423.5 536.16015625 c 3
 464.026584343 536.16015625 496.56597745 527.975805918 510.98046875 523.200195312 c 1
 493.16015625 432.48046875 l 1
387 705 m 3
 628.419921875 705 756 538.086914062 756 346 c 3
 756 151.690429688 628.419921875 -17 387 -17 c 3
 145.580078125 -17 18 151.690429688 18 346 c 3
 18 538.086914062 145.580078125 705 387 705 c 3
387 616 m 3
 208.630362085 616 115 485.537109375 115 346 c 3
 115 204.395507813 208.974591357 72 388 72 c 3
 565.713867188 72 659 204.878703096 659 347 c 3
 659 486.020305266 565.369637915 616 387 616 c 3
EndSplineSet
Validated: 1
EndChar

StartChar: registered
Encoding: 109 174 182
Width: 774
VWidth: 0
Flags: HMW
LayerCount: 3
Fore
SplineSet
418.91015625 361.66015625 m 1
 418.91015625 294.16015625 l 1
 319.009765625 294.16015625 l 1
 319.009765625 361.66015625 l 1
 418.91015625 361.66015625 l 1
410.809570312 531.759765625 m 1
 394.0703125 460.48046875 l 1
 319.009765625 460.48046875 l 1
 319.009765625 531.759765625 l 1
 410.809570312 531.759765625 l 1
253.129882812 160.240234375 m 1
 253.129882812 531.759765625 l 1
 347.08984375 531.759765625 l 1
 347.08984375 160.240234375 l 1
 253.129882812 160.240234375 l 1
410.809570312 531.759765625 m 1
 494.90234375 531.759765625 539.870117188 481.571289062 539.870117188 413.5 c 3
 539.870117188 346.594726562 497.2890625 294.16015625 399.469726562 294.16015625 c 1
 394.0703125 361.66015625 l 1
 429.795898438 361.66015625 445.370117188 383.54296875 445.370117188 411.879882812 c 3
 445.370117188 438.807617188 429.795898438 460.48046875 394.0703125 460.48046875 c 1
 410.809570312 531.759765625 l 1
437.809570312 160.240234375 m 1
 359.509765625 330.879882812 l 1
 460.490234375 330.879882812 l 1
 539.870117188 160.240234375 l 1
 437.809570312 160.240234375 l 1
387 705 m 3
 628.419921875 705 756 538.086914062 756 346 c 3
 756 151.690429688 628.419921875 -17 387 -17 c 3
 145.580078125 -17 18 151.690429688 18 346 c 3
 18 538.086914062 145.580078125 705 387 705 c 3
387 616 m 3
 209.286132812 616 115 485.537109375 115 346 c 3
 115 204.395507812 209.286132812 72 387 72 c 3
 564.713867188 72 659 204.878703096 659 347 c 3
 659 486.020305266 564.713867188 616 387 616 c 3
EndSplineSet
Validated: 5
EndChar

StartChar: dagger
Encoding: 299 8224 183
Width: 397
VWidth: 0
Flags: HMW
LayerCount: 3
Fore
SplineSet
146 -125 m 1
 146 688 l 1
 261 688 l 1
 261 -125 l 1
 146 -125 l 1
22 503 m 1
 393 503 l 1
 393 396 l 1
 2 396 l 1
 22 503 l 1
EndSplineSet
Validated: 5
EndChar

StartChar: section
Encoding: 102 167 184
Width: 510
VWidth: 0
Flags: HMW
LayerCount: 3
Fore
SplineSet
275 348 m 1
 207.61225103 348 165 328.680457482 165 285 c 3
 165 246.573977954 192.229441624 230.387817259 256 204 c 2
 314 180 l 2
 407.894112723 141.147263701 463 101.939069274 463 10 c 3
 463 -111.850585938 375.717311314 -175 237 -175 c 3
 169 -175 102.844044605 -157.93877551 60 -131 c 1
 60 -3 l 1
 112.468183433 -38.3230769231 178.054357551 -59 246 -59 c 3
 292.495615983 -59 329 -40.9043810614 329 -2 c 3
 329 29.9541015625 304.039170984 41.0928497409 245 66 c 2
 181 93 l 2
 100.061554404 127.145906736 33 159.092322308 33 270 c 3
 33 361.395637516 94.6216004184 418 201 418 c 1
 275 348 l 1
449 671 m 1
 420 553 l 1
 368.42372376 573.8 327.338054628 579 293 579 c 3
 231.639337225 579 196 562.440392127 196 527 c 3
 196 495.2265625 215.182741117 485.441624365 267 464 c 2
 325 440 l 2
 428.134010152 397.323857868 492 356.887716314 492 259 c 3
 492 154.933013091 428.729579381 101 326 101 c 1
 262 173 l 1
 322.158275463 173 360 193.148572198 360 241 c 3
 360 277.022156554 327.600414508 295.79357513 256 326 c 2
 192 353 l 2
 119.626800537 383.532443523 62 415.400118096 62 522 c 3
 62 629.899414062 149.6640625 698 301 698 c 3
 354.73828125 698 414.642578125 687.548387097 449 671 c 1
EndSplineSet
Validated: 5
EndChar

StartChar: multiply
Encoding: 150 215 185
Width: 497
VWidth: 0
Flags: HMW
LayerCount: 3
Fore
SplineSet
456 441 m 1
 115 100 l 1
 41 174 l 1
 382 515 l 1
 456 441 l 1
382 100 m 1
 41 441 l 1
 115 515 l 1
 456 174 l 1
 382 100 l 1
EndSplineSet
Validated: 5
EndChar

StartChar: degree
Encoding: 111 176 186
Width: 320
VWidth: 0
Flags: HMW
LayerCount: 3
Fore
SplineSet
160 688 m 3
 247.2734375 688 297 628.127929688 297 553 c 3
 297 476.857421875 247.2734375 418 160 418 c 3
 72.7265625 418 23 476.857421875 23 553 c 3
 23 628.127929688 72.7265625 688 160 688 c 3
160 619 m 3
 118.666992188 619 98 587.14453125 98 553 c 3
 98 519.827148438 118.666992188 487 160 487 c 7
 201.333007812 487 222 519.827148438 222 553 c 3
 222 587.14453125 201.333007812 619 160 619 c 3
EndSplineSet
Validated: 1
EndChar

StartChar: guilsinglleft
Encoding: 304 8249 187
Width: 346
VWidth: 0
Flags: HMW
LayerCount: 3
Fore
SplineSet
158 253 m 5
 328 52 l 5
 213 52 l 5
 18 253 l 5
 158 253 l 5
328 455 m 5
 158 253 l 5
 18 253 l 5
 213 455 l 5
 328 455 l 5
EndSplineSet
EndChar

StartChar: endash
Encoding: 291 8211 191
Width: 515
VWidth: 0
Flags: HMW
LayerCount: 3
Fore
SplineSet
481 366 m 1
 481 252 l 5
 22 252 l 5
 53 366 l 1
 481 366 l 1
EndSplineSet
EndChar

StartChar: emdash
Encoding: 292 8212 192
Width: 821
VWidth: 0
Flags: HMW
LayerCount: 3
Fore
SplineSet
787 366 m 1
 787 252 l 5
 22 252 l 5
 53 366 l 1
 787 366 l 1
EndSplineSet
EndChar

StartChar: bullet
Encoding: 301 8226 193
Width: 344
VWidth: 0
Flags: HMW
LayerCount: 3
Fore
SplineSet
172 440.75 m 3
 256.418634259 440.75 308 382.313909774 308 306.75 c 3
 308 230.684456929 256.418634259 172.25 172 172.25 c 3
 87.5813657407 172.25 36 230.684456929 36 306.75 c 3
 36 382.313909774 87.5813657407 440.75 172 440.75 c 3
EndSplineSet
EndChar

StartChar: brokenbar
Encoding: 101 166 197
Width: 231
VWidth: 0
Flags: HW
AnchorPoint: "Top" 296 744 basechar 0
LayerCount: 3
Fore
SplineSet
58 368 m 1
 58 718 l 1
 173 718 l 1
 173 368 l 1
 58 368 l 1
173 248 m 5
 173 -125 l 1
 58 -125 l 1
 58 248 l 5
 173 248 l 5
EndSplineSet
EndChar

StartChar: divide
Encoding: 182 247 201
Width: 483
VWidth: 0
Flags: HW
LayerCount: 3
Fore
SplineSet
244 220.5 m 3
 286.609375 220.5 314 191.770507812 314 152.5 c 3
 314 112.810546875 286.609375 84 244 84 c 3
 201.390625 84 174 112.810546875 174 152.5 c 3
 174 191.770507812 201.390625 220.5 244 220.5 c 3
244 543 m 3
 286.608924279 543 314 514.270716292 314 475 c 3
 314 435.310241358 286.608924279 406.5 244 406.5 c 3
 209.651912826 406.5 185.192936177 425.221940883 177.000000584 453.272834228 c 4
 175.029570441 460.019173824 174 467.30511832 174 475 c 3
 174 514.270716292 201.391075721 543 244 543 c 3
41 362 m 1
 459 362 l 1
 459 265 l 1
 16 265 l 1
 41 362 l 1
EndSplineSet
EndChar

StartChar: florin
Encoding: 276 402 283
Width: 338
VWidth: 0
Flags: HW
LayerCount: 3
Fore
SplineSet
22 503 m 1
 335 503 l 1
 335 396 l 1
 2 396 l 1
 22 503 l 1
81 548 m 2
 81 695.5 184.590909091 725 253 725 c 3
 284.33874318 725 304.871202257 720 320 714 c 1
 341 602 l 1
 325.737304688 607 305.385742188 612 283 612 c 3
 244 612 210 598 210 548 c 2
 210 0 l 1
 81 0 l 1
 81 548 l 2
EndSplineSet
Colour: ffff00
EndChar

StartChar: uni02C9
Encoding: 283 713 288
Width: 365
VWidth: 0
Flags: HMW
AnchorPoint: "Top" 182 590 mark 0
LayerCount: 3
Fore
SplineSet
17 598 m 1
 17 688 l 1
 348 688 l 1
 348 598 l 1
 17 598 l 1
EndSplineSet
EndChar

StartChar: breve
Encoding: 284 728 289
Width: 344
VWidth: 0
Flags: HMW
AnchorPoint: "Top" 172 535 mark 0
LayerCount: 3
Fore
SplineSet
240 688 m 1
 331 688 l 1
 331 580.65060241 258.982352941 526 172 526 c 19
 85.0176470588 526 13 580.65060241 13 688 c 1
 104 688 l 1
 104 636.173913043 127 600 172 600 c 3
 217 600 240 636.173913043 240 688 c 1
EndSplineSet
EndChar

StartChar: dotaccent
Encoding: 285 729 290
Width: 233
VWidth: 0
Flags: HMW
AnchorPoint: "Top" 116 579 basechar 0
LayerCount: 3
Fore
SplineSet
47 579 m 1
 47 711 l 1
 186 711 l 1
 186 579 l 1
 47 579 l 1
EndSplineSet
Validated: 1
EndChar

StartChar: hungarumlaut
Encoding: 289 733 292
Width: 381
VWidth: 0
Flags: HW
AnchorPoint: "Top" 156 522 mark 0
LayerCount: 3
Fore
SplineSet
87 522 m 1
 200 688 l 1
 83 688 l 1
 5 522 l 25
 87 522 l 1
263 522 m 1
 376 688 l 1
 259 688 l 1
 181 522 l 25
 263 522 l 1
EndSplineSet
EndChar

StartChar: daggerdbl
Encoding: 300 8225 294
Width: 397
VWidth: 0
Flags: HMW
LayerCount: 3
Fore
SplineSet
22 233 m 1
 393 233 l 1
 393 126 l 1
 2 126 l 1
 22 233 l 1
146 -125 m 1
 146 688 l 1
 261 688 l 1
 261 -125 l 1
 146 -125 l 1
22 503 m 1
 393 503 l 1
 393 396 l 1
 2 396 l 1
 22 503 l 1
EndSplineSet
EndChar

StartChar: perthousand
Encoding: 303 8240 295
Width: 1127
VWidth: 0
Flags: HW
LayerCount: 3
Fore
SplineSet
950 369 m 3
 1053 369 1109 295 1109 183 c 3
 1109 70 1053 -5 950 -5 c 3
 847 -5 792 70 792 183 c 3
 792 295 847 369 950 369 c 3
950 284 m 3
 913 284 893 252 893 183 c 3
 893 113 913 80 950 80 c 3
 988 80 1008 113 1008 183 c 3
 1008 252 988 284 950 284 c 3
604 369 m 3
 707 369 763 295 763 183 c 3
 763 70 707 -5 604 -5 c 3
 501 -5 446 70 446 183 c 3
 446 295 501 369 604 369 c 3
604 284 m 3
 567 284 547 252 547 183 c 3
 547 113 567 80 604 80 c 3
 642 80 662 113 662 183 c 3
 662 252 642 284 604 284 c 3
181 693 m 3
 285 693 340 619 340 507 c 3
 340 394 285 319 181 319 c 3
 78 319 23 394 23 507 c 3
 23 619 78 693 181 693 c 3
181 608 m 3
 144 608 124 576 124 507 c 3
 124 437 144 404 181 404 c 3
 219 404 239 437 239 507 c 3
 239 576 219 608 181 608 c 3
EndSplineSet
Refer: 296 8260 S 1 0 0 1 101 0 2
EndChar

StartChar: fraction
Encoding: 306 8260 296
Width: 584
VWidth: 0
Flags: HW
LayerCount: 3
Fore
SplineSet
-5 0 m 5
 473 688 l 5
 589 688 l 5
 111 0 l 5
 -5 0 l 5
EndSplineSet
EndChar

StartChar: minus
Encoding: 318 8722 307
Width: 463
VWidth: 0
Flags: HW
LayerCount: 3
Fore
SplineSet
44 367 m 1
 439 367 l 5
 439 259 l 5
 16 259 l 1
 44 367 l 1
EndSplineSet
EndChar

StartChar: uni2219
Encoding: 320 8729 309
Width: 256
VWidth: 0
Flags: HW
LayerCount: 3
Fore
SplineSet
128 404.75 m 3
 182.783203125 404.75 218 367.571289062 218 316.75 c 3
 218 265.471679688 182.783203125 228.25 128 228.25 c 3
 73.216796875 228.25 38 265.471679688 38 316.75 c 3
 38 367.571289062 73.216796875 404.75 128 404.75 c 3
EndSplineSet
Colour: ffff00
EndChar

StartChar: approxequal
Encoding: 324 8776 313
Width: 495
VWidth: 0
Flags: HW
LayerCount: 3
Fore
SplineSet
39 228 m 5
 65.302734375 252.700195312 107.0234375 285 156 285 c 3
 192.666992188 285 219.127929688 271.260742188 251 249.934570312 c 0
 284 227.854492188 309.630859375 215 344 215 c 3
 385.4140625 215 419.345703125 240.650390625 456 272 c 1
 456 170 l 1
 433.307617188 142.450195312 390.646484375 113 338 113 c 3
 301.411132812 113 278.735351562 125.258789062 243 148.244140625 c 0
 208.428710938 170.48046875 185.720703125 183 151 183 c 3
 102.859375 183 69.826171875 153.549804688 39 126 c 5
 39 228 l 5
39 422 m 5
 65.302734375 446.700195312 107.0234375 479 156 479 c 3
 192.666992188 479 219.127929688 465.260742188 251 443.934570312 c 0
 284 421.854492188 309.630859375 409 344 409 c 3
 385.4140625 409 419.345703125 434.650390625 456 466 c 1
 456 364 l 1
 433.307617188 336.450195312 390.646484375 307 338 307 c 3
 301.411132812 307 278.735351562 319.258789062 243 342.244140625 c 0
 208.428710938 364.48046875 185.720703125 377 151 377 c 3
 102.859375 377 69.826171875 347.549804688 39 320 c 5
 39 422 l 5
EndSplineSet
EndChar

StartChar: notequal
Encoding: 325 8800 314
Width: 504
VWidth: 0
Flags: HW
LayerCount: 3
Fore
SplineSet
393 558 m 1
 215 48 l 1
 119 48 l 1
 297 558 l 1
 393 558 l 1
EndSplineSet
Refer: 92 61 N 1 0 0 1 0 0 2
EndChar

StartChar: mu
Encoding: 116 181 321
Width: 536
VWidth: 0
Flags: HW
LayerCount: 3
Fore
SplineSet
484 503 m 1
 484 0 l 1
 361 0 l 1
 360 143 l 1
 355 143 l 1
 355 503 l 1
 484 503 l 1
372 150 m 1
 372 55.2075471698 316 -7 229 -7 c 3
 144 -7 91 72.0243902439 91 155 c 1
 175 202 l 1
 175 156.455028132 193.312213319 123.469292328 231 112.747070312 c 0
 239.643301001 110.288042658 249.305692078 109 260 109 c 3
 320.1015625 109 355 147.6484375 355 219 c 1
 372 150 l 1
46 -165 m 1
 46 503 l 1
 175 503 l 1
 175 -165 l 1
 46 -165 l 1
EndSplineSet
EndChar

StartChar: less
Encoding: 28 60 322
Width: 396
VWidth: 0
Flags: HWO
LayerCount: 3
Fore
SplineSet
361 150 m 5
 25 336 l 5
 25 216 l 5
 361 28 l 5
 361 150 l 5
361 402 m 5
 361 524 l 5
 25 336 l 5
 25 216 l 5
 361 402 l 5
EndSplineSet
EndChar

StartChar: asciicircum
Encoding: 62 94 324
Width: 505
VWidth: 0
Flags: HW
LayerCount: 3
Fore
SplineSet
126 352 m 5
 300 688 l 5
 180 688 l 5
 4 352 l 5
 126 352 l 5
378 352 m 5
 500 352 l 5
 324 688 l 5
 204 688 l 5
 378 352 l 5
EndSplineSet
EndChar

StartChar: asciitilde
Encoding: 94 126 325
Width: 509
VWidth: 0
Flags: HW
LayerCount: 3
Fore
SplineSet
494 389 m 1
 494 283.38229583 429 218 338 218 c 3
 293.557617188 218 263.3671875 242.3045836 233 267 c 0
 198.816628325 294.798840359 184.62890625 306 164 306 c 3
 133 306 110.677734375 284.333007812 107 215 c 1
 15 232 l 1
 15 340.087890625 81 407 171 407 c 3
 213.413085938 407 245.832454427 386.023053178 278 358 c 0
 312.206054688 328.201080858 323.373046875 319 344 319 c 3
 376 319 399.099609375 339.714055842 402 406 c 1
 494 389 l 1
EndSplineSet
EndChar

StartChar: logicalnot
Encoding: 107 172 326
Width: 495
VWidth: 0
Flags: HW
LayerCount: 3
Fore
SplineSet
349 129 m 5
 349 366 l 1
 459 366 l 1
 459 129 l 5
 349 129 l 5
43 414 m 1
 459 414 l 1
 459 310 l 1
 16 310 l 1
 43 414 l 1
EndSplineSet
EndChar

StartChar: plusminus
Encoding: 112 177 329
Width: 487
VWidth: 0
Flags: HW
LayerCount: 3
Fore
SplineSet
50 132 m 1
 452 132 l 1
 452 35 l 1
 25 35 l 1
 50 132 l 1
191 177 m 1
 191 569 l 1
 298 569 l 1
 298 177 l 1
 191 177 l 1
50 427 m 5
 452 427 l 5
 452 330 l 5
 25 330 l 5
 50 427 l 5
EndSplineSet
EndChar

